<svg xmlns="http://www.w3.org/2000/svg" xmlns:xlink="http://www.w3.org/1999/xlink" width="891" height="465" viewBox="0 0 891 465">
  <defs>
    <clipPath id="clip-path">
      <path id="Trazado_2576" data-name="Trazado 2576" d="M-1047.049-1101.018l2.813,8.613a11.667,11.667,0,0,1-3.477,1.16l-2.744-9.132c1.256-.235,2.419-.456,3.408-.645Z" fill="none"/>
    </clipPath>
    <clipPath id="clip-path-2">
      <path id="Trazado_2598" data-name="Trazado 2598" d="M-907.01-1079.011c.155,0,4.239.155,5.754,1.291,1.546,1.159,3.47,3.4,6.569,12.752,2.555,7.713,6.57-2.319,9.132-23.511a.879.879,0,0,0,.529.325c1.527.305,5.29-.3,6.763-.58,0,0,4.057,26.471-.966,36.518-4.479,8.958-13.263,9.622-24.427-1.024q-2.034-1.941-4.169-4.386a214.959,214.959,0,0,1-10.4,22.541c-1.016,1.851-2.064,3.636-3.122,5.282a1.537,1.537,0,0,1-.2.155c-.854.587-4.587,2.33-12.942-4.019-6.345-4.823-7.431-3.8-9.348-5.6.244-.132,10.55-5.716,13.985-14.882,3.478-9.274,7.729-24.345,10.047-27.05,2.226,1.236,5.086.73,6.956,0a4.378,4.378,0,0,0,1.932-1.163c.387-.773-1.329-1.341-1.329-1.341.2-.538.468-1.218.773-1.925a7.137,7.137,0,0,1,3.648,2.879A3.808,3.808,0,0,1-907.01-1079.011Z" fill="none"/>
    </clipPath>
    <clipPath id="clip-path-3">
      <path id="Trazado_2600" data-name="Trazado 2600" d="M-878.573-1094.53a.335.335,0,0,1,.336.307c.053.631.167,2.089.167,2.978,0,1.159.386,2.318,0,2.7a1.865,1.865,0,0,1-.746.235,22.086,22.086,0,0,1-6.21.151.879.879,0,0,1-.529-.325c-.936-1.142-.274-4.913-.093-5.843a.258.258,0,0,1,.253-.208Z" fill="none"/>
    </clipPath>
    <clipPath id="clip-path-4">
      <path id="Trazado_2605" data-name="Trazado 2605" d="M-925.4-1086.67a2.975,2.975,0,0,1,3.08-2.064,11.508,11.508,0,0,1,3.578.719c-.452.711-4.738,3.919-1.067,6.817-2.318,2.7-6.569,17.776-10.047,27.05-3.435,9.166-13.741,14.75-13.985,14.882h0c-1-.947-2.233-2.659-4.56-6.38a26.47,26.47,0,0,0-5.263-5.681c-.1-.077-.147-.116-.147-.116s10.488-7.937,13.982-15.071c-.263.151-12.359,7.13-22.29,5.6-10.016-1.541-19.53-15.333-19.321-29.368,3.96.985,9.15-2.547,9.15-2.547h0c2.183,15.28,9.982,18.1,14.225,17.038,4.637-1.159,21.253-11.593,26.277-11.979A23.355,23.355,0,0,1-925.4-1086.67Z" fill="none"/>
    </clipPath>
    <clipPath id="clip-path-5">
      <path id="Trazado_2607" data-name="Trazado 2607" d="M-980.459-1089.63a4.838,4.838,0,0,1-.91-.321.493.493,0,0,1-.274-.432l-.149-4.92h.019a.213.213,0,0,0,.139.193,4.6,4.6,0,0,0,1.4.441c3.575.549,7.678-2.952,7.678-2.952.1,1.646.062,3.373.267,4.795h0S-976.5-1088.645-980.459-1089.63Z" fill="none"/>
    </clipPath>
    <clipPath id="clip-path-6">
      <path id="Trazado_2612" data-name="Trazado 2612" d="M-970.427-1112.113c.773,5.41-2.319,14.685-2.319,14.685s-3.91,3.308-7.485,2.759a20.076,20.076,0,0,0,.3-2.241c.337-3.757.167-9.611-1.708-12.111-2.318-3.092-1.545-4.637-.386-4.251s4.251,5.024,4.637,4.637.387.387-1.159-4.637,1.159-2.705,1.546-1.932,1.932,7.342,2.7,7.342.772-2.319.386-6.569S-971.2-1117.523-970.427-1112.113Z" fill="none"/>
    </clipPath>
    <clipPath id="clip-path-7">
      <path id="Trazado_2617" data-name="Trazado 2617" d="M-871.887-1112.113c2.512.966-4.058,8.309-5.217,11.786a39.749,39.749,0,0,0-1.739,5.99h-6.569s-3.092-4.637-1.932-9.661.772,3.478,2.705,4.251.386-8.5,1.159-11.206,1.932-1.16,1.932,1.159-.386,6.956,0,6.956,2.319-11.207,3.478-10.82-1.159,9.274-.386,9.66S-875.772-1113.607-871.887-1112.113Z" fill="none"/>
    </clipPath>
    <clipPath id="clip-path-8">
      <path id="Trazado_2622" data-name="Trazado 2622" d="M-897.585-1098.394c.387,1.545-1.546,4.637-6.956,4.25a57.6,57.6,0,0,0-5.023,5.024,16.711,16.711,0,0,0-1.909,3.5c-.3.707-.572,1.387-.773,1.925-.255.687-.41,1.147-.41,1.147a8.093,8.093,0,0,0-.193,1.353v0c-1.87.726-4.73,1.232-6.956,0-3.671-2.9.615-6.106,1.067-6.817a4.043,4.043,0,0,0,1.059-3.037c0-2.733-2.7-3.092-3.478-6.569a10.534,10.534,0,0,1,1.546-7.729c.359-.537,1.213-1.986,2.338-3.54,1.3-1.8,2.573-4.131,4.231-4.962,3.091-1.545,6.569,0,8.888.773s5.41,1.546,5.41,1.546l-3.864,11.593.772.386a3,3,0,0,0,1.16-.386,2.479,2.479,0,0,1,2.318.4A2,2,0,0,1-897.585-1098.394Z" fill="none"/>
    </clipPath>
    <clipPath id="clip-path-9">
      <path id="Trazado_2625" data-name="Trazado 2625" d="M-925.988-1022.847c-3.091,3.091-12.752,6.956-15.07,6.956a9.379,9.379,0,0,1-3.865-.773h0c.259.042,11.2,1.789,10.43-10.047-.773-11.98-13.139-8.115-16.23-4.638a18.442,18.442,0,0,0-1.237,1.635c-.425-.058-.7-.089-.7-.089-2.276-.452-12.366.336-20.276,1.063-2.446.228-4.684.444-6.419.622-1.82.182-3.084.317-3.455.356.7-.344,1.306-1.62,1.554-4.359.05-.557.093-1.094.123-1.608.5-8.239-1.368-11.442-2.821-12.683a3.107,3.107,0,0,0-1.526-.776.028.028,0,0,1,.023-.008h0c1.14-.116,19.426-1.928,24.291-1.928,5.024,0,7.489-2.2,7.489-2.2a26.47,26.47,0,0,1,5.263,5.681c2.327,3.721,3.556,5.433,4.56,6.38h0c1.917,1.8,3,.776,9.348,5.6,8.355,6.349,12.088,4.606,12.942,4.019a20.148,20.148,0,0,1-2.068,3.895A19.526,19.526,0,0,1-925.988-1022.847Z" fill="none"/>
    </clipPath>
    <clipPath id="clip-path-10">
      <path id="Trazado_2627" data-name="Trazado 2627" d="M-961.319-1014.214c1.542-2.69,3.192-5.538,4.745-8.142,1.77-2.968,3.413-5.619,4.618-7.358a18.442,18.442,0,0,1,1.237-1.635c3.091-3.477,15.457-7.342,16.23,4.638.765,11.836-10.171,10.089-10.43,10.047h0c.194,1.151-.529,4.216-1.847,7.624a34.077,34.077,0,0,1-5.495,9.765c-.885,1-2.175,2.323-3.679,3.814-1.387,1.376-2.952,2.9-4.552,4.448h0c-4.594,4.456-9.432,9.124-10.885,11.149-.078.108-.143.205-.2.3a2.353,2.353,0,0,1-.213.29l-.012.019c-1.959,2.288-7.261.128-6.5-3.018a3.5,3.5,0,0,1,.545-1.155c5.023-5.024,8.5-16.617,10.433-20.094C-966.54-1004.955-964.113-1009.322-961.319-1014.214Z" fill="none"/>
    </clipPath>
    <clipPath id="clip-path-11">
      <path id="Trazado_2629" data-name="Trazado 2629" d="M-983.945-1046.412c1.453,1.241,3.324,4.444,2.821,12.683l-4.76.062a50,50,0,0,1-28.21,17c-12.3,2.662-15.844,5.41-15.844,5.41-5.8-.387-5.41-5.41-5.41-5.41s23.573-13.912,25.118-14.685,16.617-11.592,18.936-12.752a33.3,33.3,0,0,1,5.421-1.831C-984.756-1046.226-983.945-1046.412-983.945-1046.412Z" fill="none"/>
    </clipPath>
    <clipPath id="clip-path-12">
      <path id="Trazado_2631" data-name="Trazado 2631" d="M-1035.348-1016.664s-.386,5.023,5.41,5.41a7.882,7.882,0,0,0,2.319.386c1.932,0-7.342,9.661-10.047,10.048-2.419.343-21.64-20.868-21.64-24.732s4.637-2.7,5.8-1.546,5.8,4.637,15.457,7.729C-1034.961-1018.6-1035.348-1016.664-1035.348-1016.664Z" fill="none"/>
    </clipPath>
    <clipPath id="clip-path-13">
      <path id="Trazado_2633" data-name="Trazado 2633" d="M-978.314-982.276c-.758,3.146,4.544,5.306,6.5,3.018-.243.41-2.55,5.314-4.42,8.962-.777,1.515-1.48,2.813-1.925,3.482-1.545,2.318-6.183,6.569-10.82,2.705s-2.318-7.729,0-10.434C-986.688-977.209-978.538-982.136-978.314-982.276Z" fill="none"/>
    </clipPath>
    <clipPath id="clip-path-14">
      <path id="Trazado_2635" data-name="Trazado 2635" d="M-1043.076-1105.157c.386,1.546.386,3.092-.773,3.478-.263.089-1.465.328-3.2.657-.989.189-2.152.41-3.408.645-6.322,1.183-15.032,2.8-16.246,3.312-1.217-2.593-2.979-5.82-3.59-6.925,0,0,5.963-1.553,6.349-1.94s7.729-9.274,8.5-9.661a8.162,8.162,0,0,1,1.306-.394c.8-.2,1.816-.417,2.732-.622s1.728-.39,2.145-.529c1.159-.387,2.318,1.545,1.546,2.7a2.094,2.094,0,0,0,1.545,3.091c1.546.387,0,2.319.387,2.7S-1043.463-1106.7-1043.076-1105.157Z" fill="none"/>
    </clipPath>
    <clipPath id="clip-path-15">
      <path id="Trazado_2637" data-name="Trazado 2637" d="M-1066.7-1097.065c.789,1.685,1.349,3.1,1.214,3.5-.387,1.159-8.5,4.251-9.661,4.251-.124,0-.263-.139-.41-.387-1.147-1.924-2.844-10.449-3.049-11.488l8.1-3.2s.081.143.22.394C-1069.682-1102.885-1067.92-1099.658-1066.7-1097.065Zm-4.579,4.239c.7-.255,1.183-.707,1.074-1.008s-.769-.337-1.468-.082-1.183.708-1.074,1.009S-1071.981-1092.571-1071.282-1092.826Z" fill="none"/>
    </clipPath>
    <clipPath id="clip-path-16">
      <path id="Trazado_2639" data-name="Trazado 2639" d="M-1075.56-1089.7h-1.522a22.816,22.816,0,0,0-3.092,1.546,16.41,16.41,0,0,1-4.25.773c-.773,0-2.833,2.272-2.833,2.272l-4.328-10.951,12.976-5.128C-1078.4-1100.149-1076.707-1091.624-1075.56-1089.7Z" fill="none"/>
    </clipPath>
    <clipPath id="clip-path-17">
      <path id="Trazado_2641" data-name="Trazado 2641" d="M-1064.658-1061.1l-3.729,90.811h-4.386l-3.729-90.811Z" fill="none"/>
    </clipPath>
    <clipPath id="clip-path-18">
      <path id="Trazado_2643" data-name="Trazado 2643" d="M-1054.522-1126.708l3.118,10.1c-.916.205-1.932.425-2.732.622l-3.528-10.14v0a19.2,19.2,0,0,0,3.142-.583Z" fill="none"/>
    </clipPath>
    <clipPath id="clip-Acceso_no_autorizado_Completo">
      <rect width="891" height="465"/>
    </clipPath>
  </defs>
  <g id="Acceso_no_autorizado_Completo" data-name="Acceso no autorizado  Completo" clip-path="url(#clip-Acceso_no_autorizado_Completo)">
    <rect width="891" height="465" fill="#fff"/>
    <g id="Componente_377_1" data-name="Componente 377 – 1" transform="translate(51 63)">
      <text id="Acceso_no_autorizado" data-name="Acceso no autorizado" transform="translate(0 149)" fill="#222" font-size="20" font-family="Montserrat-SemiBold, Montserrat" font-weight="600"><tspan x="0" y="0">Acceso no autorizado</tspan></text>
      <text id="Parece_que_no_tenes_permiso_para_acceder_a_la_página._Probá_con_otras_credenciales_o_comunícate_con_nosotros_al_0800-SIGLO21." data-name="Parece que no tenes permiso para acceder a la página. Probá con otras 
credenciales o comunícate con nosotros al  0800-SIGLO21." transform="translate(0 166)" fill="#aaa" font-size="16" font-family="SourceSansPro-Regular, Source Sans Pro"><tspan x="0" y="16">Parece que no tenes permiso para acceder a la página. Probá con otras </tspan><tspan x="0" y="37" xml:space="preserve">credenciales o comunícate con nosotros al  0800-SIGLO21.</tspan></text>
      <g id="Componente_372_3" data-name="Componente 372 – 3" transform="translate(482)">
        <g id="Grupo_5530" data-name="Grupo 5530" transform="translate(1171.5 1210)">
          <path id="Trazado_2445" data-name="Trazado 2445" d="M-897.252-1129.677l1.8-6.2a6.381,6.381,0,0,1,.859-2.016,1.28,1.28,0,0,1,1.038-.526,1.453,1.453,0,0,1,1.041.4,1.306,1.306,0,0,1,.423.987,2.134,2.134,0,0,1-.227.923,7.592,7.592,0,0,1-.8,1.234Z" fill="#33ab9a"/>
        </g>
        <g id="Grupo_5531" data-name="Grupo 5531" transform="translate(1171.5 1210)">
          <path id="Trazado_2446" data-name="Trazado 2446" d="M-904.479-1131.776l-1.1-5.66a5.744,5.744,0,0,1-.143-1.952,1.15,1.15,0,0,1,.611-.843,1.3,1.3,0,0,1,.988-.111,1.169,1.169,0,0,1,.74.611,1.909,1.909,0,0,1,.2.826,6.773,6.773,0,0,1-.132,1.307Z" fill="#33ab9a"/>
        </g>
        <path id="Trazado_2449" data-name="Trazado 2449" d="M-996.332-1088.6s-2.575,6.031-.2,9.938C-996.528-1078.665-1002.3-1082.288-996.332-1088.6Z" transform="translate(1171.5 1210)" fill="#b37cb5"/>
        <path id="Trazado_2450" data-name="Trazado 2450" d="M-990.656-1087.052s-.388,6.546,3.17,9.421C-987.486-1077.631-994.146-1079.092-990.656-1087.052Z" transform="translate(1171.5 1210)" fill="#b37cb5"/>
        <path id="Trazado_2451" data-name="Trazado 2451" d="M-860.009-1104.356s1.717,6.329-1.179,9.87C-861.188-1094.486-854.966-1097.277-860.009-1104.356Z" transform="translate(1171.5 1210)" fill="#b37cb5"/>
        <path id="Trazado_2452" data-name="Trazado 2452" d="M-865.845-1103.6s-.52,6.538-4.441,8.893C-870.286-1094.712-863.488-1095.238-865.845-1103.6Z" transform="translate(1171.5 1210)" fill="#b37cb5"/>
        <path id="Trazado_2545" data-name="Trazado 2545" d="M-1092.733-931.842c-29.431-3.463-56.6-28.038-52.941-40.189,3.456-11.489,31.667-3.592,85.015-13.525,64.319-11.976,71.829-32.506,115.736-31.108,33.384,1.063,81.085,14.588,85.595,40.382,3.773,21.578-22.735,51.426-52.555,58.738-46.611,11.429-71.387-39.752-126.363-28.983C-1062.938-941.69-1069.473-929.1-1092.733-931.842Z" transform="translate(1171.5 1210)" fill="#cceae6" opacity="0.5"/>
        <path id="Trazado_2546" data-name="Trazado 2546" d="M-871.887-1112.113c2.512.966-4.058,8.309-5.217,11.786a39.749,39.749,0,0,0-1.739,5.99h-6.569s-3.092-4.637-1.932-9.661.772,3.478,2.705,4.251.386-8.5,1.159-11.206,1.932-1.16,1.932,1.159-.386,6.956,0,6.956,2.319-11.207,3.478-10.82-1.159,9.274-.386,9.66S-875.772-1113.607-871.887-1112.113Z" transform="translate(1171.5 1210)" fill="#cceae6"/>
        <path id="Trazado_2547" data-name="Trazado 2547" d="M-907.01-1079.011c.155,0,4.239.155,5.754,1.291,1.546,1.159,3.47,3.4,6.569,12.752,2.555,7.713,6.57-2.319,9.132-23.511a.879.879,0,0,0,.529.325c1.527.305,5.29-.3,6.763-.58,0,0,4.057,26.471-.966,36.518-4.479,8.958-13.263,9.622-24.427-1.024q-2.034-1.941-4.169-4.386a214.959,214.959,0,0,1-10.4,22.541c-1.016,1.851-2.064,3.636-3.122,5.282a1.537,1.537,0,0,1-.2.155c-.854.587-4.587,2.33-12.942-4.019-6.345-4.823-7.431-3.8-9.348-5.6.244-.132,10.55-5.716,13.985-14.882,3.478-9.274,7.729-24.345,10.047-27.05,2.226,1.236,5.086.73,6.956,0a4.378,4.378,0,0,0,1.932-1.163c.387-.773-1.329-1.341-1.329-1.341.2-.538.468-1.218.773-1.925a7.137,7.137,0,0,1,3.648,2.879A3.808,3.808,0,0,1-907.01-1079.011Z" transform="translate(1171.5 1210)" fill="#66c0b3"/>
        <path id="Trazado_2548" data-name="Trazado 2548" d="M-897.585-1098.394c.387,1.545-1.546,4.637-6.956,4.25a57.6,57.6,0,0,0-5.023,5.024,16.711,16.711,0,0,0-1.909,3.5c-.3.707-.572,1.387-.773,1.925-.255.687-.41,1.147-.41,1.147a8.093,8.093,0,0,0-.193,1.353v0c-1.87.726-4.73,1.232-6.956,0-3.671-2.9.615-6.106,1.067-6.817a4.043,4.043,0,0,0,1.059-3.037c0-2.733-2.7-3.092-3.478-6.569a10.534,10.534,0,0,1,1.546-7.729c.359-.537,1.213-1.986,2.338-3.54,1.3-1.8,2.573-4.131,4.231-4.962,3.091-1.545,6.569,0,8.888.773s5.41,1.546,5.41,1.546l-3.864,11.593.772.386a3,3,0,0,0,1.16-.386,2.479,2.479,0,0,1,2.318.4A2,2,0,0,1-897.585-1098.394Z" transform="translate(1171.5 1210)" fill="#cceae6"/>
        <path id="Trazado_2549" data-name="Trazado 2549" d="M-903.656-1053.24a15.7,15.7,0,0,1-.691,3.343c-.387,1.546-8.888,15.457-10.82,15.843a3.228,3.228,0,0,1-3.061-1.031,214.959,214.959,0,0,0,10.4-22.541Q-905.692-1055.18-903.656-1053.24Z" transform="translate(1171.5 1210)" fill="#002620"/>
        <path id="Trazado_2550" data-name="Trazado 2550" d="M-912.849-1081.2a8.093,8.093,0,0,1,.193-1.353s.155-.46.41-1.147c0,0,1.716.568,1.329,1.341a4.378,4.378,0,0,1-1.932,1.163Z" transform="translate(1171.5 1210)" fill="#009681"/>
        <path id="Trazado_2551" data-name="Trazado 2551" d="M-920.616-970.231a3.43,3.43,0,0,1,1.971,3.03,3.688,3.688,0,0,1-3.865,3.478,3.687,3.687,0,0,1-3.864-3.478,3.623,3.623,0,0,1,3.312-3.443c1.039.193,1.882.328,2.45.383Z" transform="translate(1171.5 1210)" fill="#004b41"/>
        <path id="Trazado_2552" data-name="Trazado 2552" d="M-925.4-1086.67a2.975,2.975,0,0,1,3.08-2.064,11.508,11.508,0,0,1,3.578.719c-.452.711-4.738,3.919-1.067,6.817-2.318,2.7-6.569,17.776-10.047,27.05-3.435,9.166-13.741,14.75-13.985,14.882h0c-1-.947-2.233-2.659-4.56-6.38a26.47,26.47,0,0,0-5.263-5.681c-.1-.077-.147-.116-.147-.116s10.488-7.937,13.982-15.071c-.263.151-12.359,7.13-22.29,5.6-10.016-1.541-19.53-15.333-19.321-29.368,3.96.985,9.15-2.547,9.15-2.547h0c2.183,15.28,9.982,18.1,14.225,17.038,4.637-1.159,21.253-11.593,26.277-11.979A23.355,23.355,0,0,1-925.4-1086.67Z" transform="translate(1171.5 1210)" fill="#66c0b3"/>
        <path id="Trazado_2553" data-name="Trazado 2553" d="M-942.187-983.972c1.488.572,3.134,1.2,4.827,1.843,6.874,2.609,14.568,5.449,16.01,5.654,2.7.386,2.318,5.41,1.545,6.183-.069.069-.351.077-.807.031-.568-.055-1.411-.19-2.45-.383-6-1.125-18.584-4.239-23.24-5.4,2.759,4.818,6.878,12.141,7.176,13.482a3.229,3.229,0,0,1-1.8,3.486,8.35,8.35,0,0,1-1.468.723v0a9.89,9.89,0,0,1-1.368.425s-.754-1.016-2.033-2.755c-2.5-3.393-7.021-9.533-11.879-16.18l-18.549,6.57-.007,0c1.87-3.648,4.177-8.552,4.42-8.962l.012-.019a2.353,2.353,0,0,0,.213-.29c.058-.092.123-.189.2-.3l14.869-7.818.17-2.307.4-5.472c1.5-1.491,2.794-2.813,3.679-3.814a34.077,34.077,0,0,0,5.495-9.765s.429.193,1.129.456l-2.423,16.984-.723,5.078s1.4.544,3.567,1.383C-944.324-984.791-943.3-984.4-942.187-983.972Z" transform="translate(1171.5 1210)" fill="#002620"/>
        <path id="Trazado_2554" data-name="Trazado 2554" d="M-923.615-1025.753c4.3,1.341,4.97,6.384,2.651,8.7s-12.381,8.815-16.616,9.661c-2.771.553-6.288-.533-8.061-1.194-.7-.263-1.129-.456-1.129-.456,1.318-3.408,2.041-6.473,1.847-7.624a9.379,9.379,0,0,0,3.865.773c2.318,0,11.979-3.865,15.07-6.956A19.526,19.526,0,0,0-923.615-1025.753Z" transform="translate(1171.5 1210)" fill="#002620"/>
        <path id="Trazado_2555" data-name="Trazado 2555" d="M-939.513-991.933c1.16.387,3.092,2.706,2.705,3.865-.073.22-.429.467-.954.719a30.031,30.031,0,0,1-4.425,1.464l0,0c-1.646.437-3.029.742-3.029.742-2.168-.839-3.567-1.383-3.567-1.383l.723-5.078S-940.672-992.319-939.513-991.933Z" transform="translate(1171.5 1210)" fill="#002620"/>
        <path id="Trazado_2556" data-name="Trazado 2556" d="M-937.762-987.349s2.55,1.885.4,5.22c-1.693-.641-3.339-1.271-4.827-1.843a3.1,3.1,0,0,1,0-1.909l0,0A30.031,30.031,0,0,0-937.762-987.349Z" transform="translate(1171.5 1210)" fill="#004b41"/>
        <path id="Trazado_2557" data-name="Trazado 2557" d="M-940.927-959.078a5.02,5.02,0,0,1,1.028,3.084,4.375,4.375,0,0,1-4.058,4.637h-1.932a4.375,4.375,0,0,0,4.058-4.637,5.111,5.111,0,0,0-.564-2.358v0A8.35,8.35,0,0,0-940.927-959.078Z" transform="translate(1171.5 1210)" fill="#002620"/>
        <path id="Trazado_2558" data-name="Trazado 2558" d="M-942.4-958.352a5.111,5.111,0,0,1,.564,2.358,4.375,4.375,0,0,1-4.058,4.637,4.375,4.375,0,0,1-4.057-4.637,4.376,4.376,0,0,1,4.057-4.638h.027l.066-.05c1.279,1.739,2.033,2.755,2.033,2.755A9.89,9.89,0,0,0-942.4-958.352Z" transform="translate(1171.5 1210)" fill="#004b41"/>
        <path id="Trazado_2559" data-name="Trazado 2559" d="M-925.988-1022.847c-3.091,3.091-12.752,6.956-15.07,6.956a9.379,9.379,0,0,1-3.865-.773h0c.259.042,11.2,1.789,10.43-10.047-.773-11.98-13.139-8.115-16.23-4.638a18.442,18.442,0,0,0-1.237,1.635c-.425-.058-.7-.089-.7-.089-2.276-.452-12.366.336-20.276,1.063-2.446.228-4.684.444-6.419.622-1.82.182-3.084.317-3.455.356.7-.344,1.306-1.62,1.554-4.359.05-.557.093-1.094.123-1.608.5-8.239-1.368-11.442-2.821-12.683a3.107,3.107,0,0,0-1.526-.776.028.028,0,0,1,.023-.008h0c1.14-.116,19.426-1.928,24.291-1.928,5.024,0,7.489-2.2,7.489-2.2a26.47,26.47,0,0,1,5.263,5.681c2.327,3.721,3.556,5.433,4.56,6.38h0c1.917,1.8,3,.776,9.348,5.6,8.355,6.349,12.088,4.606,12.942,4.019a20.148,20.148,0,0,1-2.068,3.895A19.526,19.526,0,0,1-925.988-1022.847Z" transform="translate(1171.5 1210)" fill="#9a519c"/>
        <path id="Trazado_2560" data-name="Trazado 2560" d="M-952.651-1029.8s.27.031.7.089c-1.205,1.739-2.848,4.39-4.618,7.358,0,0-9.966-3-16.353-6.38v0C-965.017-1029.467-954.927-1030.255-952.651-1029.8Z" transform="translate(1171.5 1210)" fill="#002620"/>
        <path id="Trazado_2561" data-name="Trazado 2561" d="M-956.346-989.989l-.17,2.307-14.869,7.818c1.453-2.025,6.291-6.693,10.885-11.149h0l3.98,1.013Z" transform="translate(1171.5 1210)" fill="#002620"/>
        <path id="Trazado_2562" data-name="Trazado 2562" d="M-979.319-1027.867l-.027-.251c1.735-.178,3.973-.394,6.419-.622v0c6.387,3.381,16.353,6.38,16.353,6.38-1.553,2.6-3.2,5.452-4.745,8.142,0,0-11.813-3.609-16.064-5.928C-981.564-1022.422-979.388-1027.7-979.319-1027.867Z" transform="translate(1171.5 1210)" fill="#004b41"/>
        <path id="Trazado_2563" data-name="Trazado 2563" d="M-961.319-1014.214c1.542-2.69,3.192-5.538,4.745-8.142,1.77-2.968,3.413-5.619,4.618-7.358a18.442,18.442,0,0,1,1.237-1.635c3.091-3.477,15.457-7.342,16.23,4.638.765,11.836-10.171,10.089-10.43,10.047h0c.194,1.151-.529,4.216-1.847,7.624a34.077,34.077,0,0,1-5.495,9.765c-.885,1-2.175,2.323-3.679,3.814-1.387,1.376-2.952,2.9-4.552,4.448h0c-4.594,4.456-9.432,9.124-10.885,11.149-.078.108-.143.205-.2.3a2.353,2.353,0,0,1-.213.29l-.012.019c-1.959,2.288-7.261.128-6.5-3.018a3.5,3.5,0,0,1,.545-1.155c5.023-5.024,8.5-16.617,10.433-20.094C-966.54-1004.955-964.113-1009.322-961.319-1014.214Z" transform="translate(1171.5 1210)" fill="#cceae6"/>
        <path id="Trazado_2564" data-name="Trazado 2564" d="M-978.314-982.276c-.758,3.146,4.544,5.306,6.5,3.018-.243.41-2.55,5.314-4.42,8.962-.777,1.515-1.48,2.813-1.925,3.482-1.545,2.318-6.183,6.569-10.82,2.705s-2.318-7.729,0-10.434C-986.688-977.209-978.538-982.136-978.314-982.276Z" transform="translate(1171.5 1210)" fill="#812583"/>
        <path id="Trazado_2565" data-name="Trazado 2565" d="M-979.926-1096.91c-.006.077,7.76-1.1,7.373-.711s-3.864,3.477-7.678,2.952a4.6,4.6,0,0,1-1.4-.441.213.213,0,0,1-.139-.193C-981.773-1095.743-980.459-1096.586-979.926-1096.91Z" transform="translate(1171.5 1210)" fill="#009681"/>
        <path id="Trazado_2566" data-name="Trazado 2566" d="M-983.945-1046.412c1.453,1.241,3.324,4.444,2.821,12.683l-4.76.062a50,50,0,0,1-28.21,17c-12.3,2.662-15.844,5.41-15.844,5.41-5.8-.387-5.41-5.41-5.41-5.41s23.573-13.912,25.118-14.685,16.617-11.592,18.936-12.752a33.3,33.3,0,0,1,5.421-1.831C-984.756-1046.226-983.945-1046.412-983.945-1046.412Z" transform="translate(1171.5 1210)" fill="#cceae6"/>
        <path id="Trazado_2567" data-name="Trazado 2567" d="M-985.884-1033.667l4.76-.062c-.03.514-.073,1.051-.123,1.608-.248,2.739-.858,4.015-1.554,4.359h0C-984.381-1027-986.422-1030.989-985.884-1033.667Z" transform="translate(1171.5 1210)" fill="#611c62"/>
        <path id="Trazado_2568" data-name="Trazado 2568" d="M-980.459-1089.63a4.838,4.838,0,0,1-.91-.321.493.493,0,0,1-.274-.432l-.149-4.92h.019a.213.213,0,0,0,.139.193,4.6,4.6,0,0,0,1.4.441c3.575.549,7.678-2.952,7.678-2.952.1,1.646.062,3.373.267,4.795h0S-976.5-1088.645-980.459-1089.63Z" transform="translate(1171.5 1210)" fill="#33ab9a"/>
        <path id="Trazado_2569" data-name="Trazado 2569" d="M-985.471-1047.188a3.107,3.107,0,0,1,1.526.776s-.811.186-1.928.48c0,0,.089-1.191.4-1.256Z" transform="translate(1171.5 1210)" fill="#812583"/>
        <path id="Trazado_2570" data-name="Trazado 2570" d="M-1028.392-1066.9a27.86,27.86,0,0,1,0,5.8h-82.7a27.858,27.858,0,0,1,0-5.8Z" transform="translate(1171.5 1210)" fill="#ccc"/>
        <path id="Trazado_2571" data-name="Trazado 2571" d="M-1035.348-1016.664s-.386,5.023,5.41,5.41a7.882,7.882,0,0,0,2.319.386c1.932,0-7.342,9.661-10.047,10.048-2.419.343-21.64-20.868-21.64-24.732s4.637-2.7,5.8-1.546,5.8,4.637,15.457,7.729C-1034.961-1018.6-1035.348-1016.664-1035.348-1016.664Z" transform="translate(1171.5 1210)" fill="#812583"/>
        <path id="Trazado_2572" data-name="Trazado 2572" d="M-1041.917-970.292s.386,5.8,0,6.955h-57.192a40.039,40.039,0,0,1,0-6.955h57.192Z" transform="translate(1171.5 1210)" fill="#b3b3b3"/>
        <path id="Trazado_2573" data-name="Trazado 2573" d="M-1043.076-1105.157c.386,1.546.386,3.092-.773,3.478-.263.089-1.465.328-3.2.657-.989.189-2.152.41-3.408.645-6.322,1.183-15.032,2.8-16.246,3.312-1.217-2.593-2.979-5.82-3.59-6.925,0,0,5.963-1.553,6.349-1.94s7.729-9.274,8.5-9.661a8.162,8.162,0,0,1,1.306-.394c.8-.2,1.816-.417,2.732-.622s1.728-.39,2.145-.529c1.159-.387,2.318,1.545,1.546,2.7a2.094,2.094,0,0,0,1.545,3.091c1.546.387,0,2.319.387,2.7S-1043.463-1106.7-1043.076-1105.157Z" transform="translate(1171.5 1210)" fill="#cceae6"/>
        <path id="Trazado_2574" data-name="Trazado 2574" d="M-1047.049-1101.018l2.813,8.613a11.667,11.667,0,0,1-3.477,1.16l-2.744-9.132c1.256-.235,2.419-.456,3.408-.645Z" transform="translate(1171.5 1210)" fill="#b3b3b3"/>
        <g id="Grupo_5575" data-name="Grupo 5575" transform="translate(1171.5 1210)">
          <g id="Grupo_5574" data-name="Grupo 5574" clip-path="url(#clip-path)">
            <path id="Trazado_2575" data-name="Trazado 2575" d="M-1054.862-1126.99c.966,4.609,7.812,29.284,8.929,35.316s2.277.622,2.277-.924-10.434-35.165-10.434-35.165Z" fill="#999"/>
          </g>
        </g>
        <path id="Trazado_2577" data-name="Trazado 2577" d="M-1059.693-1165.44a19.706,19.706,0,0,1,19.708,19.708,19.708,19.708,0,0,1-14.537,19.02,19.2,19.2,0,0,1-3.142.583v0c-.665.066-1.345.1-2.029.1a19.706,19.706,0,0,1-19.708-19.708A19.706,19.706,0,0,1-1059.693-1165.44Z" transform="translate(1171.5 1210)" fill="#ff1d25"/>
        <path id="Trazado_2578" data-name="Trazado 2578" d="M-1049.259-1072.7s.386,3.478,0,4.638l-37.1-2.319-14.3-35.552s3.092-2.318,4.251-2.318l4.819,12.188,4.328,10.951,3.992,10.094Z" transform="translate(1171.5 1210)" fill="#999"/>
        <path id="Trazado_2579" data-name="Trazado 2579" d="M-1054.522-1126.708l3.118,10.1c-.916.205-1.932.425-2.732.622l-3.528-10.14v0a19.2,19.2,0,0,0,3.142-.583Z" transform="translate(1171.5 1210)" fill="#b3b3b3"/>
        <path id="Trazado_2580" data-name="Trazado 2580" d="M-1064.658-1061.1l-3.729,90.811h-4.386l-3.729-90.811Z" transform="translate(1171.5 1210)" fill="#ccc"/>
        <path id="Trazado_2581" data-name="Trazado 2581" d="M-1066.7-1097.065c.789,1.685,1.349,3.1,1.214,3.5-.387,1.159-8.5,4.251-9.661,4.251-.124,0-.263-.139-.41-.387-1.147-1.924-2.844-10.449-3.049-11.488l8.1-3.2s.081.143.22.394C-1069.682-1102.885-1067.92-1099.658-1066.7-1097.065Zm-4.579,4.239c.7-.255,1.183-.707,1.074-1.008s-.769-.337-1.468-.082-1.183.708-1.074,1.009S-1071.981-1092.571-1071.282-1092.826Z" transform="translate(1171.5 1210)" fill="#812583"/>
        <path id="Trazado_2582" data-name="Trazado 2582" d="M-1070.208-1093.834c.109.3-.371.753-1.074,1.008s-1.36.217-1.468-.081.371-.754,1.074-1.009S-1070.316-1094.132-1070.208-1093.834Z" transform="translate(1171.5 1210)" fill="#200921"/>
        <path id="Trazado_2583" data-name="Trazado 2583" d="M-1075.56-1089.7h-1.522a22.816,22.816,0,0,0-3.092,1.546,16.41,16.41,0,0,1-4.25.773c-.773,0-2.833,2.272-2.833,2.272l-4.328-10.951,12.976-5.128C-1078.4-1100.149-1076.707-1091.624-1075.56-1089.7Z" transform="translate(1171.5 1210)" fill="#9a519c"/>
        <path id="Trazado_2584" data-name="Trazado 2584" d="M-908.6-1108.248a2.487,2.487,0,0,1,1.546,2.705" transform="translate(1171.5 1210)" fill="none" stroke="#002620" stroke-linecap="round" stroke-linejoin="round" stroke-width="0.386"/>
        <path id="Trazado_2585" data-name="Trazado 2585" d="M-912.462-1109.794s-1.933-.387-2.705.386" transform="translate(1171.5 1210)" fill="none" stroke="#002620" stroke-linecap="round" stroke-linejoin="round" stroke-width="0.386"/>
        <path id="Trazado_2586" data-name="Trazado 2586" d="M-911.044-1097.686a1.337,1.337,0,0,1-.455,2.4c-1.149.156-.97-.7-1.736-.6s-.945.961-1.814.3S-913.6-1099.29-911.044-1097.686Z" transform="translate(1171.5 1210)" fill="#002620" stroke="#002620" stroke-linecap="round" stroke-linejoin="round" stroke-width="0.386"/>
        <path id="Trazado_2587" data-name="Trazado 2587" d="M-914.4-1099.747c-1.545,0-1.545-1.159-1.159-1.932a35.088,35.088,0,0,1,3.285-3.671s-3.478,2.318-3.865,3.478C-916.256-1101.506-916.713-1099.747-914.4-1099.747Z" transform="translate(1171.5 1210)" fill="#66c0b3"/>
        <path id="Trazado_2588" data-name="Trazado 2588" d="M-916.134-1106.123c-.222.445-.506,1.812-.193,2.125.387.387,1.16.387,1.932-1.159a2.268,2.268,0,0,0,.315-1.457.827.827,0,0,0-.715-.639C-915.361-1107.282-915.747-1106.9-916.134-1106.123Z" transform="translate(1171.5 1210)" fill="#002620"/>
        <path id="Trazado_2589" data-name="Trazado 2589" d="M-911.3-1104.384c-.328.437-1.159,1.546-.387,2.319.387.386,1.16,0,1.546-.387a3.338,3.338,0,0,0,.966-1.739c.137-.518-.2-1.132-.694-1.117A2,2,0,0,0-911.3-1104.384Z" transform="translate(1171.5 1210)" fill="#002620"/>
        <path id="Trazado_2590" data-name="Trazado 2590" d="M-1065.876-1137.231s10.048-14.684,10.82-16.23" transform="translate(1171.5 1210)" fill="none" stroke="#fff" stroke-linecap="round" stroke-linejoin="round" stroke-width="3.091"/>
        <path id="Trazado_2591" data-name="Trazado 2591" d="M-1066.649-1152.3s10.434,8.888,13.912,14.685" transform="translate(1171.5 1210)" fill="none" stroke="#fff" stroke-linecap="round" stroke-linejoin="round" stroke-width="3.091"/>
        <path id="Trazado_2592" data-name="Trazado 2592" d="M-970.427-1112.113c.773,5.41-2.319,14.685-2.319,14.685s-3.91,3.308-7.485,2.759a20.076,20.076,0,0,0,.3-2.241c.337-3.757.167-9.611-1.708-12.111-2.318-3.092-1.545-4.637-.386-4.251s4.251,5.024,4.637,4.637.387.387-1.159-4.637,1.159-2.705,1.546-1.932,1.932,7.342,2.7,7.342.772-2.319.386-6.569S-971.2-1117.523-970.427-1112.113Z" transform="translate(1171.5 1210)" fill="#cceae6"/>
        <path id="Trazado_2593" data-name="Trazado 2593" d="M-893.334-1116.557c1.352,2.126,3.864,6.956.386,11.207a43.717,43.717,0,0,1-5.41,5.808,2.479,2.479,0,0,0-2.318-.4,4.778,4.778,0,0,0-1.16.773l-.862-.575a.443.443,0,0,1-.169-.528c.256-.661.823-2.135,1.031-2.762.387-1.159.387-2.318.773-3.864a17.531,17.531,0,0,1,1.16-3.091,23.419,23.419,0,0,0-5.024-2.7c-2.319-.773-5.41-1.932-8.5-.387-1.658.831-2.547,2.385-3.845,4.189-1.334-8.37.367-11.531,7.709-12.69S-894.687-1118.682-893.334-1116.557Z" transform="translate(1171.5 1210)" fill="#002620"/>
        <g id="Grupo_5577" data-name="Grupo 5577" transform="translate(1171.5 1210)">
          <g id="Grupo_5576" data-name="Grupo 5576" clip-path="url(#clip-path-2)">
            <path id="Trazado_2594" data-name="Trazado 2594" d="M-878.528-1089.913a1.138,1.138,0,0,0-.464,1c.334,4.784,2.367,38.759-8.546,39.6-11.219.863-16.837-10.294-20.867-12.365-2.089,3.837-14.813,26.2-20.657,31.405-6.393,5.692,12.542,2.6,12.542,2.6l14.684-21.254s10.822,7.446,14.685,7.342c14.3-.386,14.3-44.44,13.139-47.917C-874.912-1092.2-877.44-1090.716-878.528-1089.913Z" fill="#33ab9a"/>
            <path id="Trazado_2595" data-name="Trazado 2595" d="M-919.611-1081.005c-3.092,6.183-8.417,21.937-9.661,26.664-1.932,7.342-13.912,15.457-14.685,15.844s-.386-.387-.386-.387,11.979-8.115,14.3-15.457c1.362-4.313,6.956-22.027,9.989-27.067C-919.6-1082.16-919.225-1081.778-919.611-1081.005Z" fill="#33ab9a"/>
            <path id="Trazado_2596" data-name="Trazado 2596" d="M-891.8-1062.874s-1.531,1.963-3.077.418-3.864-13.139-6.569-15.457,9.274,3.864,9.274,3.864Z" fill="#33ab9a"/>
            <path id="Trazado_2597" data-name="Trazado 2597" d="M-911.5-1076.368s3.478,0,4.25-1.932.387-3.48.194-3.093S-906.859-1077.913-911.5-1076.368Z" fill="#33ab9a"/>
          </g>
        </g>
        <g id="Grupo_5579" data-name="Grupo 5579" transform="translate(1171.5 1210)">
          <g id="Grupo_5578" data-name="Grupo 5578" clip-path="url(#clip-path-3)">
            <path id="Trazado_2599" data-name="Trazado 2599" d="M-878.932-1087.994l.282-7.309s0-1.159.773-.386,1.546,6.955.773,7.342A4.467,4.467,0,0,1-878.932-1087.994Z" fill="#009681"/>
          </g>
        </g>
        <g id="Grupo_5581" data-name="Grupo 5581" transform="translate(1171.5 1210)">
          <g id="Grupo_5580" data-name="Grupo 5580" clip-path="url(#clip-path-4)">
            <path id="Trazado_2601" data-name="Trazado 2601" d="M-919.611-1081.005c-3.092,6.183-8.417,21.937-9.661,26.664-1.932,7.342-13.912,15.457-14.685,15.844s-.386-.387-.386-.387,11.979-8.115,14.3-15.457c1.362-4.313,6.956-22.027,9.989-27.067C-919.6-1082.16-919.225-1081.778-919.611-1081.005Z" fill="#33ab9a"/>
            <path id="Trazado_2602" data-name="Trazado 2602" d="M-925.408-1080.232s.773,2.319,0-6.569l-1.932-.387A14.548,14.548,0,0,1-925.408-1080.232Z" fill="#33ab9a"/>
            <path id="Trazado_2603" data-name="Trazado 2603" d="M-961.212-1060.81a58.964,58.964,0,0,0,23.052-10.534c2.4-1.824-1.909,5.3-1.909,5.3s-6.979,6.3-11.616,6.3A52.134,52.134,0,0,1-961.212-1060.81Z" fill="#33ab9a"/>
            <path id="Trazado_2604" data-name="Trazado 2604" d="M-974.1-1093.371s1.932,19.708,15,17.793l-11.139-17.793Z" fill="#33ab9a"/>
          </g>
        </g>
        <g id="Grupo_5583" data-name="Grupo 5583" transform="translate(1171.5 1210)">
          <g id="Grupo_5582" data-name="Grupo 5582" clip-path="url(#clip-path-5)">
            <path id="Trazado_2606" data-name="Trazado 2606" d="M-973.794-1091.345a51.012,51.012,0,0,1-.691-5.5c0-1.545,2.7-1.932,2.7-1.932l.773,6.956Z" fill="#009681"/>
          </g>
        </g>
        <path id="Trazado_2608" data-name="Trazado 2608" d="M-975.331-1106.289s.846.166.846,1.712v2.318a.58.58,0,0,0,1.16,0C-973.325-1103.032-973.473-1106.455-975.331-1106.289Z" transform="translate(1171.5 1210)" fill="#99d5cd"/>
        <g id="Grupo_5585" data-name="Grupo 5585" transform="translate(1171.5 1210)">
          <g id="Grupo_5584" data-name="Grupo 5584" clip-path="url(#clip-path-6)">
            <path id="Trazado_2609" data-name="Trazado 2609" d="M-972.539-1116.857c.759,1.846,3.464,5.71-1.906,20.815-3.32,9.339,3.438-2.739,3.438-2.739s3.478-15.843,2.319-17.389S-972.91-1117.761-972.539-1116.857Z" fill="#99d5cd"/>
            <path id="Trazado_2610" data-name="Trazado 2610" d="M-978.149-1116.3c1.732,1.678,2.119,8.247,3.278,8.633s1.159-1.932,1.159-1.932-2.705-7.342-3.478-7.342A.963.963,0,0,0-978.149-1116.3Z" fill="#99d5cd"/>
            <path id="Trazado_2611" data-name="Trazado 2611" d="M-982.125-1113.3c2.617,2.537,3,4.855,3.776,4.855a1.42,1.42,0,0,0,1.159-.386c.261-.261-3.091-5.024-3.091-5.024l-1.159-.386S-982.991-1114.136-982.125-1113.3Z" fill="#99d5cd"/>
          </g>
        </g>
        <g id="Grupo_5587" data-name="Grupo 5587" transform="translate(1171.5 1210)">
          <g id="Grupo_5586" data-name="Grupo 5586" clip-path="url(#clip-path-7)">
            <path id="Trazado_2613" data-name="Trazado 2613" d="M-879.255-1094.53c1.378-10.82,6.788-13.139,7.547-17.492l4.265-1.057-6.569,19.322S-879.422-1093.216-879.255-1094.53Z" fill="#99d5cd"/>
            <path id="Trazado_2614" data-name="Trazado 2614" d="M-878.263-1113.852c1.159.773-1.16,8.115-.773,9.275s.894.331.894.331,1.811-9.992,1.038-9.992A1.692,1.692,0,0,0-878.263-1113.852Z" fill="#99d5cd"/>
            <path id="Trazado_2615" data-name="Trazado 2615" d="M-882.514-1112.692c1.159,1.159,0,8.115.386,9.274.346,1.037.739.336.773,0,.057-.559.773-9.661,0-9.661A1.69,1.69,0,0,0-882.514-1112.692Z" fill="#99d5cd"/>
            <path id="Trazado_2616" data-name="Trazado 2616" d="M-886.765-1105.737c.387.773.387,5.024,1.16,5.8a.975.975,0,0,0,1.415.164l-1.029-7.506Z" fill="#99d5cd"/>
          </g>
        </g>
        <path id="Trazado_2618" data-name="Trazado 2618" d="M-878.573-1094.53a.335.335,0,0,1,.336.307c.053.631.167,2.089.167,2.978,0,1.159.386,2.318,0,2.7a1.865,1.865,0,0,1-.746.235,22.086,22.086,0,0,1-6.21.151.879.879,0,0,1-.529-.325c-.936-1.142-.274-4.913-.093-5.843a.258.258,0,0,1,.253-.208Z" transform="translate(1171.5 1210)" fill="#33ab9a"/>
        <path id="Trazado_2619" data-name="Trazado 2619" d="M-901.836-1098.008s2.319-1.932,3.092.387A4.316,4.316,0,0,0-901.836-1098.008Z" transform="translate(1171.5 1210)" fill="#99d5cd"/>
        <path id="Trazado_2620" data-name="Trazado 2620" d="M-900.29-1098.394c.387,1.159-1.546,2.705-1.546,2.705s2.319-1.16,2.319-2.319S-900.29-1098.394-900.29-1098.394Z" transform="translate(1171.5 1210)" fill="#99d5cd"/>
        <g id="Grupo_5589" data-name="Grupo 5589" transform="translate(1171.5 1210)">
          <g id="Grupo_5588" data-name="Grupo 5588" clip-path="url(#clip-path-8)">
            <path id="Trazado_2621" data-name="Trazado 2621" d="M-904.541-1094.144s-8.439,5.435-10.4,13.538,11.562-8.514,11.562-8.514Z" fill="#99d5cd"/>
          </g>
        </g>
        <g id="Grupo_5591" data-name="Grupo 5591" transform="translate(1171.5 1210)">
          <g id="Grupo_5590" data-name="Grupo 5590" clip-path="url(#clip-path-9)">
            <path id="Trazado_2623" data-name="Trazado 2623" d="M-929.006-1030.329a9.887,9.887,0,0,1-5.619,2.332c-3.535.32-12.809,11.913-12.809,11.913s8.5,1.932,10.433,1.159,15.071-6.57,16.23-9.661,3.092-5.41,1.16-6.183S-929.126-1030.276-929.006-1030.329Z" fill="#812583"/>
            <path id="Trazado_2624" data-name="Trazado 2624" d="M-941.068-1034.785s-5.98-2.167-10.231-2.167-30.528,1.932-30.528,1.932l-4.251,9.275,27.823-2.319,14.3-1.932Z" fill="#812583"/>
          </g>
        </g>
        <g id="Grupo_5593" data-name="Grupo 5593" transform="translate(1171.5 1210)">
          <g id="Grupo_5592" data-name="Grupo 5592" clip-path="url(#clip-path-10)">
            <path id="Trazado_2626" data-name="Trazado 2626" d="M-943.184-1014.925c3.746.385,9.284-1.845,10.048-5.41,1.159-5.41-1.16-6.956-1.16-6.956-1.724.862-4.73.656-6.952.176a1.406,1.406,0,0,0-1.707,1.386c.015,2.623-.834,4.687-3.44,7.085a1.008,1.008,0,0,0-.316.567c-.586,3.4-4.243,12.61-7.293,16.677-2.318,3.091-17.776,18.549-18.935,20.094s-3.478,5.8-3.478,6.57,25.891-22.027,27.05-22.8S-943.184-1014.925-943.184-1014.925Z" fill="#99d5cd"/>
          </g>
        </g>
        <g id="Grupo_5595" data-name="Grupo 5595" transform="translate(1171.5 1210)">
          <g id="Grupo_5594" data-name="Grupo 5594" clip-path="url(#clip-path-11)">
            <path id="Trazado_2628" data-name="Trazado 2628" d="M-980.668-1035.406l-4.911-.007a1.536,1.536,0,0,0-.9.3c-1.978,1.476-12.774,9.548-15.834,11.3-5.41,3.091-23.186,6.956-26.663,8.888s-7.729,4.251-7.729,4.251l6.569,2.318,32.46-13.525s16.617-7.729,17.39-9.274S-980.668-1035.406-980.668-1035.406Z" fill="#99d5cd"/>
          </g>
        </g>
        <g id="Grupo_5597" data-name="Grupo 5597" transform="translate(1171.5 1210)">
          <g id="Grupo_5596" data-name="Grupo 5596" clip-path="url(#clip-path-12)">
            <path id="Trazado_2630" data-name="Trazado 2630" d="M-1059.886-1026.518s15.071,17.389,20.094,17.389c5.41,0,7.343-1.545,9.275-3.091s4.637.386,4.637,1.546-9.661,11.979-11.207,11.593-20.48-17-22.026-20.868A10.969,10.969,0,0,1-1059.886-1026.518Z" fill="#611c62"/>
          </g>
        </g>
        <g id="Grupo_5599" data-name="Grupo 5599" transform="translate(1171.5 1210)">
          <g id="Grupo_5598" data-name="Grupo 5598" clip-path="url(#clip-path-13)">
            <path id="Trazado_2632" data-name="Trazado 2632" d="M-974.8-978.3s-4.322,8.206-7.8,9.365-7.059.974-8.939-1.059-1.108,6.083-1.108,6.083,4.251,3.864,7.729,3.091,9.66-8.5,11.979-13.911S-968.545-983.419-974.8-978.3Z" fill="#611c62"/>
          </g>
        </g>
        <g id="Grupo_5601" data-name="Grupo 5601" transform="translate(1171.5 1210)">
          <g id="Grupo_5600" data-name="Grupo 5600" clip-path="url(#clip-path-14)">
            <path id="Trazado_2634" data-name="Trazado 2634" d="M-1048.293-1116.943c1.183,1.286.386,1.932,0,2.7a2.467,2.467,0,0,0,0,2.319c.386.772.773.772,1.159,1.545s-.773,1.932-.386,2.319,2.318,1.932,1.546,3.864c-1.284,3.209-16.976,3.8-21.641,6.57s12.366-.773,12.366-.773,12.366-1.546,13.139-3.092-1.932-15.457-3.092-16.23-4.25-1.932-4.637-1.159S-1048.293-1116.943-1048.293-1116.943Z" fill="#99d5cd"/>
          </g>
        </g>
        <g id="Grupo_5603" data-name="Grupo 5603" transform="translate(1171.5 1210)">
          <g id="Grupo_5602" data-name="Grupo 5602" clip-path="url(#clip-path-15)">
            <path id="Trazado_2636" data-name="Trazado 2636" d="M-1066.842-1097.621c-.239,1.159-2.088,2.989-9.661,5.8s2.705,3.864,4.638,3.091,7.342-2.7,7.342-5.023S-1066.842-1097.621-1066.842-1097.621Z" fill="#611c62"/>
          </g>
        </g>
        <g id="Grupo_5605" data-name="Grupo 5605" transform="translate(1171.5 1210)">
          <g id="Grupo_5604" data-name="Grupo 5604" clip-path="url(#clip-path-16)">
            <path id="Trazado_2638" data-name="Trazado 2638" d="M-1075.73-1091.825a9.166,9.166,0,0,0-1.932,0c-.386,0-1.932,1.932-3.091,2.319s-3.478.386-4.251.772a22.116,22.116,0,0,0-3.091,2.7c-.387.387,0,2.319.772,2.319s10.82-5.024,11.207-5.024S-1072.682-1090.82-1075.73-1091.825Z" fill="#812583"/>
          </g>
        </g>
        <g id="Grupo_5607" data-name="Grupo 5607" transform="translate(1171.5 1210)">
          <g id="Grupo_5606" data-name="Grupo 5606" clip-path="url(#clip-path-17)">
            <path id="Trazado_2640" data-name="Trazado 2640" d="M-1051-965.848c-9.1-4.083-12.263-7.039-14.684-8.115-3.478-1.546,10.82-90.425,7.342-90.039s-22.413-.386-24.732,0,8.5,51.009,8.5,51.009,3.864,28.209,3.99,42.7C-1070.535-965.076-1051-965.848-1051-965.848Z" fill="#b3b3b3"/>
          </g>
        </g>
        <g id="Grupo_5609" data-name="Grupo 5609" transform="translate(1171.5 1210)">
          <g id="Grupo_5608" data-name="Grupo 5608" clip-path="url(#clip-path-18)">
            <path id="Trazado_2642" data-name="Trazado 2642" d="M-1054.862-1126.99c.966,4.609,7.812,29.284,8.929,35.316s2.277.622,2.277-.924-10.434-35.165-10.434-35.165Z" fill="#999"/>
          </g>
        </g>
        <rect id="Rectángulo_2117" data-name="Rectángulo 2117" width="339" height="339" fill="none"/>
      </g>
    </g>
  </g>
</svg>
