<svg xmlns="http://www.w3.org/2000/svg" xmlns:xlink="http://www.w3.org/1999/xlink" width="891" height="465" viewBox="0 0 891 465">
  <defs>
    <filter id="Rectángulo_2114" x="30" y="270" width="126" height="51" filterUnits="userSpaceOnUse">
      <feOffset dy="2" input="SourceAlpha"/>
      <feGaussianBlur stdDeviation="2" result="blur"/>
      <feFlood flood-opacity="0.149"/>
      <feComposite operator="in" in2="blur"/>
      <feComposite in="SourceGraphic"/>
    </filter>
    <clipPath id="clip-path">
      <path id="Trazado_2482" data-name="Trazado 2482" d="M-1469.858-998.385c-2.3-.869-8.385-3.571-11.493-5.163a7.7,7.7,0,0,1-1.877-1.132c-.365-.731,9.13-19.355,12.051-20.816,2.889-1.442,15.823-4.6,16.123-4.67a7.308,7.308,0,0,0,.712.789,19.887,19.887,0,0,1-2.593,7.168s1.151,5.748,9.5,6.938a11.193,11.193,0,0,0,8.665-2.622l-1.157,25.209s-7.873,4.8-11.525,8.088C-1451.457-984.6-1471.1-988.8-1469.858-998.385Z" fill="none"/>
    </clipPath>
    <clipPath id="clip-path-2">
      <path id="Trazado_2487" data-name="Trazado 2487" d="M-1426.439-1002.858c1.742,6.818,3.309,12.887,3.466,13.515a7.966,7.966,0,0,1-.263,3.926c-.018.014-.033.033-.051.047h0a3.348,3.348,0,0,0-.047-1.052c-.366-1.825-7.669,4.017-9.86,2.922-.731-.365,9.129-5.478,7.3-8.034s-5.806,4.382-12.781,4.382c-2.191,0-1.461-1.1-1.461-1.1l.2-4.437,1.157-25.209.1-2.125c-4.382-3.287-3.652-5.843-3.287-7.669.212-1.059,2.513-4.207,4.412-6.664l-.179-.139s-2.772-2.691-2.772-3.787c0-.431,1.479-1.661,3.382-2.991,1.026-.715,2.173-1.46,3.279-2.125,2.041-1.231,3.944-2.187,4.66-2.187,1.826,0,6.938,6.573,6.938,8.4,0,1.121-3.451,5.835-6.109,9.553-1.666,2.33-3.02,4.265-3.02,4.689C-1431.372-1022.315-1428.754-1011.929-1426.439-1002.858Z" fill="none"/>
    </clipPath>
    <clipPath id="clip-path-3">
      <path id="Trazado_2489" data-name="Trazado 2489" d="M-1418.938-1004.355c-.676,7.606-1.534,15.779-4.01,18.635a3.465,3.465,0,0,1-.288.3,7.966,7.966,0,0,0,.263-3.926c-.157-.628-1.724-6.7-3.466-13.515C-1422.455-1002.873-1420.22-1003.592-1418.938-1004.355Z" fill="none"/>
    </clipPath>
    <clipPath id="clip-path-4">
      <path id="Trazado_2491" data-name="Trazado 2491" d="M-1419.321-1019.653c1.825,6.208,2.556,13.147,2.191,13.512a5.244,5.244,0,0,1-1.808,1.786c-1.282.763-3.517,1.482-7.5,1.5-2.315-9.071-4.933-19.457-4.933-20.081,0-.424,1.354-2.359,3.02-4.689l.171.124C-1424.8-1026.956-1421.147-1025.861-1419.321-1019.653Z" fill="none"/>
    </clipPath>
    <clipPath id="clip-path-5">
      <path id="Trazado_2495" data-name="Trazado 2495" d="M-1422.608-979.848c.365,1.826-3.287,4.747-8.4,4.747s-9.495-2.556-12.416-2.191c-14.717,1.84-26.216-1.863-32.936-5.9-3.724-2.243-5.981-4.587-6.5-6.15-1.461-4.382,1.511-14.2,1.511-14.2,3.108,1.592,9.2,4.294,11.493,5.163-1.238,9.582,18.4,13.789,18.4,13.789,3.652-3.286,11.525-8.088,11.525-8.088l-.2,4.437s-.73,1.1,1.461,1.1c6.975,0,10.955-6.938,12.781-4.382s-8.034,7.669-7.3,8.034c2.191,1.095,9.494-4.747,9.86-2.922a3.348,3.348,0,0,1,.047,1.052c-.511,4.477-10.586,5.208-9.907,5.887C-1431.544-977.829-1422.973-981.674-1422.608-979.848Z" fill="none"/>
    </clipPath>
    <clipPath id="clip-path-6">
      <path id="Trazado_2498" data-name="Trazado 2498" d="M-1438.384-963.485a35.306,35.306,0,0,0-9.787-1.391,81.518,81.518,0,0,0-12.127,1.2c.424,14.914.329,40.122-.289,40.429a16.12,16.12,0,0,1-2.771.059c-4.908-.088-14.859-.574-18.095-.738l-1.044-.051c-14.242-46.013,0-59.889,6.138-59.217,6.72,4.038,18.219,7.741,32.936,5.9,2.921-.365,7.3,2.191,12.416,2.191s8.764-2.921,8.4-4.747-8.936,2.019-10.59.365c-.679-.679,9.4-1.41,9.907-5.887h0c.018-.014.033-.033.051-.047a3.465,3.465,0,0,0,.288-.3,20.062,20.062,0,0,1,9.469,10.619c2.922,7.669,3.652,23.371-1.46,50.394,0,0-1.041.1-2.7.241-4.5.384-13.534,1.092-18.482,1.019a18.716,18.716,0,0,1-2.56-.164S-1437.814-941.392-1438.384-963.485Z" fill="none"/>
    </clipPath>
    <clipPath id="clip-path-7">
      <path id="Trazado_2500" data-name="Trazado 2500" d="M-1487-913.653c.88-1.135,1.753-2.235,2.541-3.231a32.854,32.854,0,0,0,3.053-4.171,3,3,0,0,0-.051-2.866v0c3.236.164,13.187.65,18.095.738v.014s.215,9.787-.15,10.882-21.545,16.8-24.1,16.8-5.843-4.748-5.477-8.4C-1492.9-905.8-1489.91-909.906-1487-913.653Z" fill="none"/>
    </clipPath>
    <clipPath id="clip-path-8">
      <path id="Trazado_2506" data-name="Trazado 2506" d="M-1410.86-918.725c3.031,2.914,5.97,6.38,6.146,8.991.365,5.477-5.843,8.034-6.574,8.4s-24.1-12.781-24.832-13.512,0-8.4,0-8.4l0-.2c4.948.073,13.983-.635,18.482-1.019,0,0,1.351,1,3.18,2.531h0C-1413.362-921.022-1412.106-919.919-1410.86-918.725Z" fill="none"/>
    </clipPath>
    <clipPath id="clip-Sin_conexión_a_Internet_Completo">
      <rect width="891" height="465"/>
    </clipPath>
  </defs>
  <g id="Sin_conexión_a_Internet_Completo" data-name="Sin conexión a Internet Completo" clip-path="url(#clip-Sin_conexión_a_Internet_Completo)">
    <rect width="891" height="465" fill="#fff"/>
    <g id="Componente_379_1" data-name="Componente 379 – 1" transform="translate(36 51)">
      <g id="Componente_360_18" data-name="Componente 360 – 18" transform="translate(0 223)">
        <g transform="matrix(1, 0, 0, 1, -36, -274)" filter="url(#Rectángulo_2114)">
          <rect id="Rectángulo_2114-2" data-name="Rectángulo 2114" width="114" height="39" rx="4" transform="translate(36 274)" fill="#006c5b"/>
        </g>
        <text id="Recargar" transform="translate(20 25)" fill="#fff" font-size="16" font-family="Montserrat-Medium, Montserrat" font-weight="500"><tspan x="0" y="0">Recargar</tspan></text>
      </g>
      <g id="Componente_370_1" data-name="Componente 370 – 1" transform="translate(481)">
        <path id="Trazado_2447" data-name="Trazado 2447" d="M-1365.8-1127.984s.643,2.127,2.11,2.624C-1363.686-1125.36-1365.974-1125.045-1365.8-1127.984Z" transform="translate(1578.5 1210)" fill="#b37cb5"/>
        <path id="Trazado_2448" data-name="Trazado 2448" d="M-1366.811-1125.751s1.191,1.874,2.738,1.958C-1364.073-1123.793-1366.192-1122.873-1366.811-1125.751Z" transform="translate(1578.5 1210)" fill="#b37cb5"/>
        <path id="Trazado_2460" data-name="Trazado 2460" d="M-1469.168-957.39c-21.209,5-63.172,19.005-76.688-2.191-28.747-45.081,23.737-58.063,35.788-114.3,4.328-20.2,8.766-20.786,14.344-25.231,23.064-18.379,52.043,8.134,76.95-6.174,26.725-15.353,11.917-56.538,41.265-73.766,15.493-9.094,37.653-8.2,52.221,1.1,22.333,14.255,18.3,42.829,29.214,96.407,16.559,81.3,41.718,93.454,29.945,112.84C-1286.469-935.223-1353.575-984.621-1469.168-957.39Z" transform="translate(1578.5 1210)" fill="#e6d3e6" opacity="0.5"/>
        <path id="Trazado_2461" data-name="Trazado 2461" d="M-1325.659-1146.187c.37-3.7-4.994-8.693-9.988-4.809,0,0,.554-12.023-8.324-13.5s-14.057,3.884-16.277,8.508c0,0-3.329-4.069-6.658-1.85-3.972,2.648-2.405,5.549-4.44,6.844s-9.988-.555-11.837,1.11a4.253,4.253,0,0,0-1.48,3.7Z" transform="translate(1578.5 1210)" fill="#fff"/>
        <path id="Trazado_2462" data-name="Trazado 2462" d="M-1499.085-1061.466c-.562-5.616,7.582-13.2,15.164-7.3,0,0-.843-18.253,12.637-20.5s21.342,5.9,24.712,12.918c0,0,5.055-6.178,10.11-2.808,6.029,4.02,3.65,8.424,6.739,10.39s15.164-.842,17.973,1.685a6.456,6.456,0,0,1,2.246,5.616Z" transform="translate(1578.5 1210)" fill="#fff"/>
        <rect id="Rectángulo_2102" data-name="Rectángulo 2102" width="212.168" height="58.428" rx="8.764" transform="translate(68.432 205.502)" fill="#66c0b3"/>
        <rect id="Rectángulo_2103" data-name="Rectángulo 2103" width="188.067" height="46.012" rx="9.233" transform="translate(58.937 244.941)" fill="#99d5cd"/>
        <path id="Trazado_2463" data-name="Trazado 2463" d="M-1410.86-918.725c3.031,2.914,5.97,6.38,6.146,8.991.365,5.477-5.843,8.034-6.574,8.4s-24.1-12.781-24.832-13.512,0-8.4,0-8.4l0-.2c4.948.073,13.983-.635,18.482-1.019,0,0,1.351,1,3.18,2.531h0C-1413.362-921.022-1412.106-919.919-1410.86-918.725Z" transform="translate(1578.5 1210)" fill="#cda8cd"/>
        <path id="Trazado_2464" data-name="Trazado 2464" d="M-1438.384-963.485a35.306,35.306,0,0,0-9.787-1.391,81.518,81.518,0,0,0-12.127,1.2c.424,14.914.329,40.122-.289,40.429a16.12,16.12,0,0,1-2.771.059c-4.908-.088-14.859-.574-18.095-.738l-1.044-.051c-14.242-46.013,0-59.889,6.138-59.217,6.72,4.038,18.219,7.741,32.936,5.9,2.921-.365,7.3,2.191,12.416,2.191s8.764-2.921,8.4-4.747-8.936,2.019-10.59.365c-.679-.679,9.4-1.41,9.907-5.887h0c.018-.014.033-.033.051-.047a3.465,3.465,0,0,0,.288-.3,20.062,20.062,0,0,1,9.469,10.619c2.922,7.669,3.652,23.371-1.46,50.394,0,0-1.041.1-2.7.241-4.5.384-13.534,1.092-18.482,1.019a18.716,18.716,0,0,1-2.56-.164S-1437.814-941.392-1438.384-963.485Z" transform="translate(1578.5 1210)" fill="#004b41"/>
        <path id="Trazado_2465" data-name="Trazado 2465" d="M-1419.321-1019.653c1.825,6.208,2.556,13.147,2.191,13.512a5.244,5.244,0,0,1-1.808,1.786c-1.282.763-3.517,1.482-7.5,1.5-2.315-9.071-4.933-19.457-4.933-20.081,0-.424,1.354-2.359,3.02-4.689l.171.124C-1424.8-1026.956-1421.147-1025.861-1419.321-1019.653Z" transform="translate(1578.5 1210)" fill="#9a519c"/>
        <path id="Trazado_2466" data-name="Trazado 2466" d="M-1418.938-1004.355c-.676,7.606-1.534,15.779-4.01,18.635a3.465,3.465,0,0,1-.288.3,7.966,7.966,0,0,0,.263-3.926c-.157-.628-1.724-6.7-3.466-13.515C-1422.455-1002.873-1420.22-1003.592-1418.938-1004.355Z" transform="translate(1578.5 1210)" fill="#cceae6"/>
        <path id="Trazado_2467" data-name="Trazado 2467" d="M-1454.342-1029.377a7.308,7.308,0,0,1-.712-.789,15.014,15.014,0,0,1-2.593-6.953,34.959,34.959,0,0,1-.3-6.394c.04-.943.1-1.52.1-1.52a40.519,40.519,0,0,0,10.773-10.042c2.921,1.826,7.3,1.461,7.3,1.461,0,2.614,2.191,10.674,2.651,12.346-1.9,1.33-3.382,2.56-3.382,2.991,0,1.1,2.772,3.787,2.772,3.787l.179.139c-1.9,2.457-4.2,5.6-4.412,6.664-.365,1.826-1.095,4.382,3.287,7.669l-.1,2.125a11.193,11.193,0,0,1-8.665,2.622c-8.344-1.19-9.5-6.938-9.5-6.938A19.887,19.887,0,0,0-1454.342-1029.377Z" transform="translate(1578.5 1210)" fill="#cceae6"/>
        <path id="Trazado_2468" data-name="Trazado 2468" d="M-1460.8-1044.726a10.91,10.91,0,0,1,2.845,1.213,34.959,34.959,0,0,0,.3,6.394c-.073-.044-.873-.515-3.305-2.253-2.556-1.826-2.556-4.017-1.46-5.113A1.745,1.745,0,0,1-1460.8-1044.726Z" transform="translate(1578.5 1210)" fill="#99d5cd"/>
        <path id="Trazado_2469" data-name="Trazado 2469" d="M-1487-913.653c.88-1.135,1.753-2.235,2.541-3.231a32.854,32.854,0,0,0,3.053-4.171,3,3,0,0,0-.051-2.866v0c3.236.164,13.187.65,18.095.738v.014s.215,9.787-.15,10.882-21.545,16.8-24.1,16.8-5.843-4.748-5.477-8.4C-1492.9-905.8-1489.91-909.906-1487-913.653Z" transform="translate(1578.5 1210)" fill="#cda8cd"/>
        <path id="Trazado_2470" data-name="Trazado 2470" d="M-1454.561-1029.695a6.67,6.67,0,0,0,4.747,2.191c1.967,0-7.3,5.478-7.3,5.478s2.556-6.574,2.556-7.3" transform="translate(1578.5 1210)" fill="#99d5cd"/>
        <g id="Grupo_5538" data-name="Grupo 5538" transform="translate(1578.5 1210)">
          <path id="Trazado_2471" data-name="Trazado 2471" d="M-1334.537-1060.514c-5.275,3.59-52.471,58.938-52.471,58.938v-.9s34.292-100.621,37.9-102.426,29.78,102.426,29.78,102.426-43.693-56.741-45.949-59.9" fill="none" stroke="#002620" stroke-linecap="round" stroke-linejoin="round" stroke-width="1.461"/>
          <circle id="Elipse_6" data-name="Elipse 6" cx="4.738" cy="4.738" r="4.738" transform="translate(-1353.618 -1115.734)" fill="#002620" stroke="#002620" stroke-linecap="round" stroke-linejoin="round" stroke-width="1.461"/>
        </g>
        <path id="Trazado_2472" data-name="Trazado 2472" d="M-1437.345-1034.623l.312,17.344-4.017,1.826.366-4.017s-2.4-1.476-2.922-6.208c-.365-3.287,4.748-8.4,4.748-8.4s-2.557-2.922-2.557-4.382c0-1.1,4.382-3.652,4.382-3.652l-.312,7.488" transform="translate(1578.5 1210)" fill="#99d5cd"/>
        <path id="Trazado_2473" data-name="Trazado 2473" d="M-1445.979-1035.721c-.731.366-2.922,0-2.557-.73s1.461-5.478,1.461-5.478-1.729,4.554-2.191,5.478C-1449.631-1035.721-1447.44-1034.26-1445.979-1035.721Z" transform="translate(1578.5 1210)" fill="#66c0b3"/>
        <path id="Trazado_2474" data-name="Trazado 2474" d="M-1443.971-1033.675a8.292,8.292,0,0,0-3.834.869" transform="translate(1578.5 1210)" fill="none" stroke="#002620" stroke-linecap="round" stroke-linejoin="round" stroke-width="0.365"/>
        <path id="Trazado_2475" data-name="Trazado 2475" d="M-1452.918-1041.2c0,.764.432,1.755,1.1,1.826.7.074,1.46-.9,1.46-1.826s-.759-1.9-1.46-1.826C-1452.486-1042.954-1452.918-1041.963-1452.918-1041.2Z" transform="translate(1578.5 1210)" fill="#002620"/>
        <path id="Trazado_2476" data-name="Trazado 2476" d="M-1444.519-1041.563c-.145.958.408,2.128,1.1,2.191.734.066,1.637-1.127,1.46-2.191-.12-.727-.768-1.544-1.46-1.461C-1444.078-1042.946-1444.437-1042.1-1444.519-1041.563Z" transform="translate(1578.5 1210)" fill="#002620"/>
        <g id="Grupo_5539" data-name="Grupo 5539" transform="translate(1578.5 1210)">
          <path id="Trazado_2477" data-name="Trazado 2477" d="M-1426.439-1002.858c1.742,6.818,3.309,12.887,3.466,13.515a7.966,7.966,0,0,1-.263,3.926c-.018.014-.033.033-.051.047h0a3.348,3.348,0,0,0-.047-1.052c-.366-1.825-7.669,4.017-9.86,2.922-.731-.365,9.129-5.478,7.3-8.034s-5.806,4.382-12.781,4.382c-2.191,0-1.461-1.1-1.461-1.1l.2-4.437,1.157-25.209.1-2.125c-4.382-3.287-3.652-5.843-3.287-7.669.212-1.059,2.513-4.207,4.412-6.664l-.179-.139s-2.772-2.691-2.772-3.787c0-.431,1.479-1.661,3.382-2.991,1.026-.715,2.173-1.46,3.279-2.125,2.041-1.231,3.944-2.187,4.66-2.187,1.826,0,6.938,6.573,6.938,8.4,0,1.121-3.451,5.835-6.109,9.553-1.666,2.33-3.02,4.265-3.02,4.689C-1431.372-1022.315-1428.754-1011.929-1426.439-1002.858Z" fill="#cceae6"/>
          <path id="Trazado_2478" data-name="Trazado 2478" d="M-1434.842-1037.729l-2.921,3.652s-1.638-.3-1.461-1.461S-1434.842-1037.729-1434.842-1037.729Z" fill="#99d5cd"/>
        </g>
        <path id="Trazado_2479" data-name="Trazado 2479" d="M-1469.858-998.385c-2.3-.869-8.385-3.571-11.493-5.163a7.7,7.7,0,0,1-1.877-1.132c-.365-.731,9.13-19.355,12.051-20.816,2.889-1.442,15.823-4.6,16.123-4.67a7.308,7.308,0,0,0,.712.789,19.887,19.887,0,0,1-2.593,7.168s1.151,5.748,9.5,6.938a11.193,11.193,0,0,0,8.665-2.622l-1.157,25.209s-7.873,4.8-11.525,8.088C-1451.457-984.6-1471.1-988.8-1469.858-998.385Z" transform="translate(1578.5 1210)" fill="#9a519c"/>
        <g id="Grupo_5541" data-name="Grupo 5541" transform="translate(1578.5 1210)">
          <g id="Grupo_5540" data-name="Grupo 5540" clip-path="url(#clip-path)">
            <path id="Trazado_2480" data-name="Trazado 2480" d="M-1438.859-1018.375l-2.191,1.826-2.575,26.214,4.766.079Z" fill="#812583"/>
            <path id="Trazado_2481" data-name="Trazado 2481" d="M-1477.2-1001.576s5.112-16.433,7.3-18.625,11.686-2.191,13.512-1.825,8.034-9.86,3.652-9.13-23.372,4.747-23.372,4.747l-9.859,21.546,4.747,4.747Z" fill="#812583"/>
          </g>
        </g>
        <path id="Trazado_2483" data-name="Trazado 2483" d="M-1432.833-1058c1.095,2.191-1.826,3.286-1.826,3.286,2.509,3.447,1.231,9.634.818,11.317-1.106.665-2.253,1.41-3.279,2.125-.46-1.672-2.651-9.732-2.651-12.346,0,0-4.383.365-7.3-1.461a40.519,40.519,0,0,1-10.773,10.042s-.062.577-.1,1.52a10.91,10.91,0,0,0-2.845-1.213c-.12-.2-4.864-8.213-1.617-12.54,2.556-3.407,7.3-1.1,7.3-1.1s-.365-7.668,5.843-8.4c10.316-1.212,12.051,8.765,12.051,8.765S-1433.929-1060.187-1432.833-1058Z" transform="translate(1578.5 1210)" fill="#42210b"/>
        <path id="Trazado_2484" data-name="Trazado 2484" d="M-1466.612-1002.672s-.73,10.955-1.826,10.59-2.921-4.382-2.556-5.112a3.644,3.644,0,0,0,.365-1.461,9.382,9.382,0,0,0,1.826.73C-1468.438-997.925-1466.612-1002.672-1466.612-1002.672Z" transform="translate(1578.5 1210)" fill="#812583"/>
        <path id="Trazado_2485" data-name="Trazado 2485" d="M-1422.608-979.848c.365,1.826-3.287,4.747-8.4,4.747s-9.495-2.556-12.416-2.191c-14.717,1.84-26.216-1.863-32.936-5.9-3.724-2.243-5.981-4.587-6.5-6.15-1.461-4.382,1.511-14.2,1.511-14.2,3.108,1.592,9.2,4.294,11.493,5.163-1.238,9.582,18.4,13.789,18.4,13.789,3.652-3.286,11.525-8.088,11.525-8.088l-.2,4.437s-.73,1.1,1.461,1.1c6.975,0,10.955-6.938,12.781-4.382s-8.034,7.669-7.3,8.034c2.191,1.095,9.494-4.747,9.86-2.922a3.348,3.348,0,0,1,.047,1.052c-.511,4.477-10.586,5.208-9.907,5.887C-1431.544-977.829-1422.973-981.674-1422.608-979.848Z" transform="translate(1578.5 1210)" fill="#cceae6"/>
        <g id="Grupo_5543" data-name="Grupo 5543" transform="translate(1578.5 1210)">
          <g id="Grupo_5542" data-name="Grupo 5542" clip-path="url(#clip-path-2)">
            <path id="Trazado_2486" data-name="Trazado 2486" d="M-1438.858-1020.2s1.771,30.936,2.921,31.041c4.017.365,8.563-4.5,9.86-2.557.73,1.1-7.225,6.874-6.939,7.3,1.461,2.191,8.4-3.287,9.13-2.191.453.679-1.461,5.112-6.573,6.573s-12.051-2.921-12.051-6.208S-1438.858-1020.2-1438.858-1020.2Z" fill="#99d5cd"/>
          </g>
        </g>
        <g id="Grupo_5545" data-name="Grupo 5545" transform="translate(1578.5 1210)">
          <g id="Grupo_5544" data-name="Grupo 5544" clip-path="url(#clip-path-3)">
            <path id="Trazado_2488" data-name="Trazado 2488" d="M-1423.424-984.765s1.729-.013,2.094-3.665-3.287-15.7-3.287-15.7l-2.191.365Z" fill="#99d5cd"/>
          </g>
        </g>
        <g id="Grupo_5547" data-name="Grupo 5547" transform="translate(1578.5 1210)">
          <g id="Grupo_5546" data-name="Grupo 5546" clip-path="url(#clip-path-4)">
            <path id="Trazado_2490" data-name="Trazado 2490" d="M-1427.538-1027.869s-2.921,4.382-2.921,5.112,6.208,19.72,6.208,19.72l-4.017,1.826-5.478-24.1,4.382-5.112Z" fill="#812583"/>
          </g>
        </g>
        <g id="Grupo_5549" data-name="Grupo 5549" transform="translate(1578.5 1210)">
          <g id="Grupo_5548" data-name="Grupo 5548" clip-path="url(#clip-path-5)">
            <path id="Trazado_2492" data-name="Trazado 2492" d="M-1476.727-1003.072s-4.35,11.124-2.666,13.181c9.86,12.051,29.944,10.956,37.248,10.956,6.219,0,8.764,2.921,12.416,2.556,3.29-.329,7.3-1.826,7.3-4.382s1.825-1.826,2.191.365-3.652,9.86-9.495,9.86-40.9-2.922-44.917-6.939-13.146-8.034-12.051-16.068.731-12.416,3.287-14.241S-1476.727-1003.072-1476.727-1003.072Z" fill="#99d5cd"/>
            <path id="Trazado_2493" data-name="Trazado 2493" d="M-1423.972-986.772s1.181.533-.645,2.724-6.208,2.922-8.033,3.287-1.1,1.34,0,1.46c.765.084,8.4-1.095,9.129-2.191s2.556-4.017,1.826-5.112S-1423.972-986.772-1423.972-986.772Z" fill="#99d5cd"/>
            <path id="Trazado_2494" data-name="Trazado 2494" d="M-1426.072-991.746c.36,1.49-.005,1.49-1.466,2.951a55.912,55.912,0,0,1-5.843,4.017c-1.095.73.075,1.261.4,1.361s6.9-4.648,7.266-5.378c.231-.462,1.826-2.922,1.1-3.287S-1426.16-992.109-1426.072-991.746Z" fill="#99d5cd"/>
          </g>
        </g>
        <g id="Grupo_5551" data-name="Grupo 5551" transform="translate(1578.5 1210)">
          <g id="Grupo_5550" data-name="Grupo 5550" clip-path="url(#clip-path-6)">
            <path id="Trazado_2496" data-name="Trazado 2496" d="M-1431.19-922.333s-.73-41.63-2.556-45.647-13.877-4.382-16.068-4.382-10.225,1.095-10.59,1.46,0,6.208.147,8.751c.127,2.206,19.938.379,19.938.379l1.095,39.439Z" fill="#002620"/>
            <path id="Trazado_2497" data-name="Trazado 2497" d="M-1474.281-980.4a20.166,20.166,0,0,0-4.747,4.382c-3.287,4.747-6.938,18.624,3.652,52.951.887,2.877-9.13,0-9.13,0s-7.3-26.658-6.938-35.057,0-25.2,6.938-27.023,14.242,1.825,14.242,1.825l31.771,1.1s12.416,3.287,15.7,2.191c.49-.163.789,4.972-7.3,5.478-5.843.365-10.886-2.379-12.416-2.191C-1463.325-974.188-1474.281-980.4-1474.281-980.4Z" fill="#002620"/>
          </g>
        </g>
        <g id="Grupo_5553" data-name="Grupo 5553" transform="translate(1578.5 1210)">
          <g id="Grupo_5552" data-name="Grupo 5552" clip-path="url(#clip-path-7)">
            <path id="Trazado_2499" data-name="Trazado 2499" d="M-1475.6-923.643a7.626,7.626,0,0,1-.141,2.771c-.366,1.1-14.608,13.877-14.973,17.163-.282,2.541,0,6.208,2.922,8.4s-9.495-1.1-9.495-1.1l10.225-28.484,14.242-4.017Z" fill="#b37cb5"/>
          </g>
        </g>
        <path id="Trazado_2501" data-name="Trazado 2501" d="M-1487-913.654a34.123,34.123,0,0,0,3.4,3.189" transform="translate(1578.5 1210)" fill="none" stroke="#000" stroke-linecap="round" stroke-linejoin="round" stroke-width="0.365"/>
        <path id="Trazado_2502" data-name="Trazado 2502" d="M-1484.455-916.883a12.406,12.406,0,0,0,3.053,2.4" transform="translate(1578.5 1210)" fill="none" stroke="#000" stroke-linecap="round" stroke-linejoin="round" stroke-width="0.365"/>
        <path id="Trazado_2503" data-name="Trazado 2503" d="M-1410.86-918.724s-2.984,2.051-2.984,3.147" transform="translate(1578.5 1210)" fill="none" stroke="#000" stroke-linecap="round" stroke-linejoin="round" stroke-width="0.365"/>
        <path id="Trazado_2504" data-name="Trazado 2504" d="M-1414.451-921.936s-2.679,1.612-3.41,3.072" transform="translate(1578.5 1210)" fill="none" stroke="#000" stroke-linecap="round" stroke-linejoin="round" stroke-width="0.365"/>
        <g id="Grupo_5555" data-name="Grupo 5555" transform="translate(1578.5 1210)">
          <g id="Grupo_5554" data-name="Grupo 5554" clip-path="url(#clip-path-8)">
            <path id="Trazado_2505" data-name="Trazado 2505" d="M-1431.213-923.544s-.55,5.464.023,6.324c1.461,2.191,20.45,14.972,23.006,16.067s-4.017,2.557-4.017,2.557l-25.927-10.956-1.1-10.955,4.017-7.3,3.878-.969Z" fill="#b37cb5"/>
          </g>
        </g>
        <g id="Grupo_5561" data-name="Grupo 5561" transform="translate(1578.5 1210)">
          <g id="Grupo_5558" data-name="Grupo 5558">
            <g id="Grupo_5557" data-name="Grupo 5557">
              <g id="Grupo_5556" data-name="Grupo 5556">
                <path id="Trazado_2507" data-name="Trazado 2507" d="M-1337.051-1065.194a12.658,12.658,0,0,1-2.976-1.132c-4.6-2.41-6.051-11.762-6.051-12.975s.69-1.212,1.037-.69.344,1.9,1.037,3.8,1.9,2.94,2.25,2.764-1.037-3.282-1.384-4.666.865-1.731,1.209-.523,1.9,4.846,2.249,4.671-1.037-2.94-1.384-4.671.519-1.9,1.212-1.555,1.9,4.842,3.977,5.189a2.8,2.8,0,0,0,3.287-2.768c-.172-1.209-1.731-5.533,1.556-6.4s4.67,3.286,4.845,3.63,1.9,1.04,1.9,1.04a5.7,5.7,0,0,0-1.731,1.556c-1.9,3.115.095,9.385-3.287,11.416a10.825,10.825,0,0,1-3.852,1.453A9.964,9.964,0,0,1-1337.051-1065.194Z" fill="#99d5cd"/>
                <path id="Trazado_2508" data-name="Trazado 2508" d="M-1333.278-1061.659s1.9,1.731,1.555,2.249-.69-1.037-1.037-1.037,0,.69-.347.69-.171-.861-.518-.861-.172.518-.519.518S-1334.838-1060.965-1333.278-1061.659Z" fill="#002620"/>
                <path id="Trazado_2509" data-name="Trazado 2509" d="M-1337.083-1061.484s1.727,1.9,1.208,2.25-.69-1.041-1.037-1.041-.171.518-.69.518.172-1.037,0-1.208-1.041.518-1.212.171S-1337.6-1061.484-1337.083-1061.484Z" fill="#002620"/>
              </g>
            </g>
            <path id="Trazado_2510" data-name="Trazado 2510" d="M-1328.09-1081.377c.139.3.184.753,0,.865-.2.124-.639-.188-.865-.519-.243-.355-.36-.905-.173-1.037C-1328.922-1082.215-1328.32-1081.874-1328.09-1081.377Z" fill="#002620"/>
            <path id="Trazado_2511" data-name="Trazado 2511" d="M-1330.166-1081.2c.216.379.213.933,0,1.038s-.68-.268-.865-.692c-.126-.289-.189-.746,0-.865S-1330.373-1081.567-1330.166-1081.2Z" fill="#002620"/>
          </g>
          <g id="Grupo_5560" data-name="Grupo 5560">
            <g id="Grupo_5559" data-name="Grupo 5559">
              <path id="Trazado_2512" data-name="Trazado 2512" d="M-1332.588-1071.862s-.347,1.9-3.634,2.249" fill="none" stroke="#002620" stroke-linecap="round" stroke-linejoin="round" stroke-width="0.365"/>
              <line id="Línea_358" data-name="Línea 358" x1="0.124" y2="3.389" transform="translate(-1333.278 -1065.048)" fill="none" stroke="#002620" stroke-linecap="round" stroke-linejoin="round" stroke-width="0.365"/>
              <line id="Línea_359" data-name="Línea 359" x1="0.033" y2="3.714" transform="translate(-1337.083 -1065.198)" fill="none" stroke="#002620" stroke-linecap="round" stroke-linejoin="round" stroke-width="0.365"/>
            </g>
          </g>
        </g>
        <g id="Grupo_5567" data-name="Grupo 5567" transform="translate(1578.5 1210)">
          <g id="Grupo_5564" data-name="Grupo 5564">
            <path id="Trazado_2513" data-name="Trazado 2513" d="M-1355.328-1129.161a12.629,12.629,0,0,1-3.019-2.054c-.973-.887-1.924-3.933-2.739-3.9-1.095.051.9,3.614.185,4.013s-1.026-3.917-2.34-3.182c-.713.4,1.661,4.31.965,5.073s-1.372-4.285-2.009-3.928c-.713.4-.18,4.029,1.745,6.134s4.1,1.638,6.3,1.9.909-4.063.909-4.063" fill="#33ab9a"/>
            <g id="Grupo_5563" data-name="Grupo 5563">
              <g id="Grupo_5562" data-name="Grupo 5562">
                <path id="Trazado_2515" data-name="Trazado 2515" d="M-1343.22-1126.633c.447.355,5.694-7.351,5.252-3.88-.309,5.4-5.876,10.186-10.582,11.344a7.291,7.291,0,0,1-3.33.13l-.079-.017c-4.847-1.187-6.474-4.667-6.372-5.934.154-1.9,2.713-5.994,2.147-6.835-2.778-4.112-.825-7.555,3.317-7.539s3.822,3.973,3.758,4.763-.96,2,.509,3.547,3.637-1.618,4.347-2.517,1.318-.531,1.228.579-2.034,3.5-1.43,3.867,1.826-2.879,2.684-3.608,1.305-.371,1.215.736S-1343.672-1126.988-1343.22-1126.633Z" fill="#66c0b3"/>
                <path id="Trazado_2516" data-name="Trazado 2516" d="M-1348.207-1116.2s2.373.192,2.178.656-.8.093-.976.24-.393.921-.71.9-.24-.972-.557-1-.562,1.068-.853.726c-.084-.1-.045-.268.059-.461A5.691,5.691,0,0,1-1348.207-1116.2Z" fill="#002620"/>
                <path id="Trazado_2517" data-name="Trazado 2517" d="M-1352.033-1116.193c1.309.256,2.051.733,1.89.907a.119.119,0,0,1-.054.036c-.33.135-.9-.706-.79-.064s-.064.794-.381.768-.569-.844-.729-.857a2.424,2.424,0,0,0-1,.556c-.342.291-.963.083-.608-.368A5.842,5.842,0,0,1-1352.033-1116.193Z" fill="#002620"/>
              </g>
            </g>
            <path id="Trazado_2518" data-name="Trazado 2518" d="M-1354.385-1134.389a7.933,7.933,0,0,0,1.006,1.356c.158.013,1.065-1.348,1.065-1.348" fill="none" stroke="#002620" stroke-linecap="round" stroke-linejoin="round" stroke-width="0.365"/>
            <path id="Trazado_2519" data-name="Trazado 2519" d="M-1354.63-1137.277c.305,0,.584.448.57.843-.012.327-.23.743-.539.753s-.544-.371-.582-.685C-1355.233-1136.784-1354.946-1137.274-1354.63-1137.277Z" fill="#002620"/>
            <path id="Trazado_2520" data-name="Trazado 2520" d="M-1352.939-1136.5c.049-.392.4-.792.7-.741s.516.585.4.989c-.089.3-.389.639-.685.582S-1352.98-1136.178-1352.939-1136.5Z" fill="#002620"/>
            <path id="Trazado_2521" data-name="Trazado 2521" d="M-1351.838-1128.447a2.486,2.486,0,0,0,.929,2.306,2.528,2.528,0,0,0,3.033-.073" fill="none" stroke="#002620" stroke-linecap="round" stroke-linejoin="round" stroke-width="0.365"/>
          </g>
          <g id="Grupo_5566" data-name="Grupo 5566">
            <g id="Grupo_5565" data-name="Grupo 5565">
              <line id="Línea_360" data-name="Línea 360" x2="0.08" y2="2.845" transform="translate(-1351.975 -1119.047)" fill="none" stroke="#002620" stroke-linecap="round" stroke-linejoin="round" stroke-width="0.365"/>
              <line id="Línea_361" data-name="Línea 361" x2="0.577" y2="2.925" transform="translate(-1348.663 -1119.445)" fill="none" stroke="#002620" stroke-linecap="round" stroke-linejoin="round" stroke-width="0.365"/>
            </g>
          </g>
        </g>
        <g id="Grupo_5658" data-name="Grupo 5658" transform="translate(1578.5 1210)">
          <rect id="Rectángulo_2113" data-name="Rectángulo 2113" width="40.716" height="25.636" rx="1.033" transform="translate(-1394.388 -995.024)" fill="#ffedcc"/>
          <rect id="Rectángulo_2114-3" data-name="Rectángulo 2114" width="56.785" height="2.639" rx="1" transform="translate(-1407.818 -967.88)" fill="#9a519c"/>
          <path id="Trazado_2773" data-name="Trazado 2773" d="M-1352.254-996.72h-42.421a1.034,1.034,0,0,0-1.032,1.032V-969.1a1.035,1.035,0,0,0,1.032,1.032h42.421a1.035,1.035,0,0,0,1.032-1.032v-26.587A1.034,1.034,0,0,0-1352.254-996.72Zm-1.418,26.3a1.036,1.036,0,0,1-1.033,1.033h-38.65a1.036,1.036,0,0,1-1.033-1.033v-23.57a1.036,1.036,0,0,1,1.033-1.033h38.65a1.036,1.036,0,0,1,1.033,1.033Z" fill="#812583"/>
          <rect id="Rectángulo_2115" data-name="Rectángulo 2115" width="24.284" height="2.639" rx="1" transform="translate(-1375.318 -967.88)" fill="#411342"/>
          <g id="Grupo_5657" data-name="Grupo 5657">
            <path id="Trazado_2774" data-name="Trazado 2774" d="M-1365.684-981.458c.022-.247.037-.5.037-.748a8.343,8.343,0,0,0-.487-2.794" fill="none" stroke="#ffa300" stroke-linecap="round" stroke-linejoin="round" stroke-width="1.096"/>
            <path id="Trazado_2775" data-name="Trazado 2775" d="M-1374.03-973.823c.253,0,.5-.015.748-.037" fill="none" stroke="#ffa300" stroke-linecap="round" stroke-linejoin="round" stroke-width="1.096"/>
            <path id="Trazado_2776" data-name="Trazado 2776" d="M-1374.03-990.589a8.378,8.378,0,0,1,7.9,5.589" fill="none" stroke="#ffa300" stroke-linecap="round" stroke-linejoin="round" stroke-width="1.096"/>
            <path id="Trazado_2777" data-name="Trazado 2777" d="M-1374.03-973.823a8.38,8.38,0,0,1-7.9-5.589" fill="none" stroke="#ffa300" stroke-linecap="round" stroke-linejoin="round" stroke-width="1.096"/>
            <path id="Trazado_2778" data-name="Trazado 2778" d="M-1381.926-985a8.38,8.38,0,0,1,7.9-5.589" fill="none" stroke="#ffa300" stroke-linecap="round" stroke-linejoin="round" stroke-width="1.096"/>
            <path id="Trazado_2779" data-name="Trazado 2779" d="M-1381.926-985a8.346,8.346,0,0,0-.487,2.794,8.346,8.346,0,0,0,.487,2.794" fill="none" stroke="#ffa300" stroke-linecap="round" stroke-linejoin="round" stroke-width="1.096"/>
            <path id="Trazado_2780" data-name="Trazado 2780" d="M-1366.588-974.764a3.206,3.206,0,0,1-2.272.941,3.214,3.214,0,0,1-3.214-3.213,3.207,3.207,0,0,1,.941-2.273" fill="none" stroke="#ffa300" stroke-linecap="round" stroke-linejoin="round" stroke-width="1.096"/>
            <path id="Trazado_2781" data-name="Trazado 2781" d="M-1366.588-974.764a3.206,3.206,0,0,0,.941-2.272,3.214,3.214,0,0,0-3.213-3.214,3.207,3.207,0,0,0-2.273.941" fill="none" stroke="#ffa300" stroke-linecap="round" stroke-linejoin="round" stroke-width="1.096"/>
            <path id="Trazado_2782" data-name="Trazado 2782" d="M-1369.843-982.392a15.992,15.992,0,0,0-.239-2.608" fill="none" stroke="#ffa300" stroke-linecap="round" stroke-linejoin="round" stroke-width="1.096"/>
            <path id="Trazado_2783" data-name="Trazado 2783" d="M-1369.843-982.392c0,.062.005.123.005.186" fill="none" stroke="#ffa300" stroke-linecap="round" stroke-linejoin="round" stroke-width="1.096"/>
            <path id="Trazado_2784" data-name="Trazado 2784" d="M-1374.03-973.823a2.2,2.2,0,0,0,.69-.115" fill="none" stroke="#ffa300" stroke-linecap="round" stroke-linejoin="round" stroke-width="1.096"/>
            <path id="Trazado_2785" data-name="Trazado 2785" d="M-1377.978-985a16.042,16.042,0,0,0-.244,2.794,16.042,16.042,0,0,0,.244,2.794" fill="none" stroke="#ffa300" stroke-linecap="round" stroke-linejoin="round" stroke-width="1.096"/>
            <path id="Trazado_2786" data-name="Trazado 2786" d="M-1370.082-985c-.576-3.254-2.124-5.589-3.948-5.589" fill="none" stroke="#ffa300" stroke-linecap="round" stroke-linejoin="round" stroke-width="1.096"/>
            <path id="Trazado_2787" data-name="Trazado 2787" d="M-1377.978-979.412c.576,3.254,2.124,5.589,3.948,5.589" fill="none" stroke="#ffa300" stroke-linecap="round" stroke-linejoin="round" stroke-width="1.096"/>
            <path id="Trazado_2788" data-name="Trazado 2788" d="M-1377.978-985c.576-3.254,2.124-5.589,3.948-5.589" fill="none" stroke="#ffa300" stroke-linecap="round" stroke-linejoin="round" stroke-width="1.096"/>
            <line id="Línea_362" data-name="Línea 362" x1="3.948" transform="translate(-1381.926 -985)" fill="none" stroke="#ffa300" stroke-linecap="round" stroke-linejoin="round" stroke-width="1.096"/>
            <line id="Línea_363" data-name="Línea 363" x1="7.896" transform="translate(-1377.978 -985)" fill="none" stroke="#ffa300" stroke-linecap="round" stroke-linejoin="round" stroke-width="1.096"/>
            <line id="Línea_364" data-name="Línea 364" x2="3.948" transform="translate(-1370.082 -985)" fill="none" stroke="#ffa300" stroke-linecap="round" stroke-linejoin="round" stroke-width="1.096"/>
            <line id="Línea_365" data-name="Línea 365" x1="3.948" transform="translate(-1381.926 -979.412)" fill="none" stroke="#ffa300" stroke-linecap="round" stroke-linejoin="round" stroke-width="1.096"/>
            <line id="Línea_366" data-name="Línea 366" x2="4.219" transform="translate(-1377.978 -979.412)" fill="none" stroke="#ffa300" stroke-linecap="round" stroke-linejoin="round" stroke-width="1.096"/>
            <line id="Línea_367" data-name="Línea 367" x1="4.545" y1="4.545" transform="translate(-1371.133 -979.309)" fill="none" stroke="#ffa300" stroke-linecap="round" stroke-linejoin="round" stroke-width="1.096"/>
          </g>
        </g>
        <rect id="Rectángulo_2118" data-name="Rectángulo 2118" width="339" height="339" fill="none"/>
      </g>
      <text id="Sin_conexión_a_Internet" data-name="Sin conexión a Internet" transform="translate(119 96)" fill="#222" font-size="20" font-family="Montserrat-SemiBold, Montserrat" font-weight="600"><tspan x="-119.28" y="0">Sin conexión a Internet</tspan></text>
      <text id="Intenta:_-_Chequear_que_el_cable_el_modem_o_el_router_estén_conectados._-_Reconectar_al_Wi-Fi._Luego_recarga_la_página." data-name="Intenta:
- Chequear que el cable, el modem o el router estén conectados.
- Reconectar al Wi-Fi.
Luego recarga la página." transform="translate(0 113)" fill="#aaa" font-size="16" font-family="SourceSansPro-Regular, Source Sans Pro"><tspan x="0" y="16">Intenta:</tspan><tspan x="0" y="37">- Chequear que el cable, el modem o el router estén conectados.</tspan><tspan x="0" y="58">- Reconectar al Wi-Fi.</tspan><tspan x="0" y="79">Luego recarga la página.</tspan></text>
    </g>
  </g>
</svg>
