<svg xmlns="http://www.w3.org/2000/svg" xmlns:xlink="http://www.w3.org/1999/xlink" width="891" height="465" viewBox="0 0 891 465">
  <defs>
    <filter id="Rectángulo_2114" x="30" y="263" width="125" height="51" filterUnits="userSpaceOnUse">
      <feOffset dy="2" input="SourceAlpha"/>
      <feGaussianBlur stdDeviation="2" result="blur"/>
      <feFlood flood-opacity="0.149"/>
      <feComposite operator="in" in2="blur"/>
      <feComposite in="SourceGraphic"/>
    </filter>
    <clipPath id="clip-path">
      <path id="Trazado_2668" data-name="Trazado 2668" d="M-507.394-1031.076c5.359,3.4,11.724,8.317,11.514,10.2-.335,3.013-4.351,6.025-9.706,5.356s-10.711-5.356-13.388-5.021-7.009,1.018-7.009,1.018a35.817,35.817,0,0,1,4.649-14.084s.844-.178,2-.385a34.467,34.467,0,0,1,5.048-.606C-513.415-1034.594-510.583-1033.1-507.394-1031.076Z" fill="none"/>
    </clipPath>
    <clipPath id="clip-path-2">
      <path id="Trazado_2673" data-name="Trazado 2673" d="M-587.432-1023.874c-16.57,20.754-42.325-.679-42.325-.679-6.359,5.69-8.367,1-9.371,0a20.061,20.061,0,0,1-2.192-2.694h0c-1.172-1.754-1.878-3.665.522-3.665a8.492,8.492,0,0,0,.87-.04c2.661-.288,1.145-1.952.984-2.122l-.014-.014s2.343-1.338,6.36,0c7.028,2.343,22.759,10.376,30.122,5.69a14.779,14.779,0,0,0,5.117-5.03l0,0s10.279,1.027,11.755,6.028Q-586.5-1025.043-587.432-1023.874Z" fill="none"/>
    </clipPath>
    <clipPath id="clip-path-3">
      <path id="Trazado_2676" data-name="Trazado 2676" d="M-549.6-1033.3c7.022-1.981,23.9-2.5,28.466-2.607.739-.017,1.158-.024,1.158-.024-.258.419-.506.83-.74,1.239-.217.368-.422.733-.616,1.091a35.817,35.817,0,0,0-4.649,14.084,13.957,13.957,0,0,0-.02,2.664c-36.481,5.689-59.574,2.008-51.207-13.723q.8-1.51,1.573-2.834c7.487-12.876,12.578-12.906,18.843-17.916,6.694-5.355,8.367-15.061,8.367-15.061s17.32,9.85,10.111,22.651C-540.183-1040.417-543.7-1036.9-549.6-1033.3Z" fill="none"/>
    </clipPath>
    <clipPath id="clip-path-4">
      <path id="Trazado_2684" data-name="Trazado 2684" d="M-709.615-1023.973c.35,3.151,6.652,2.8,9.8-.7,3.461-3.846,11.323-14.331,19.5-19.923,4.656-3.184,7.106-7.735,9.907-10.536,2.666-2.666,13.7,9.337,25.207,13.654,14,5.251,28.358,17.855,36.76,19.605s18.555,3.5,25.907,2.1,61.3-1.8,68.619-1.05c17.155,1.75,13.654-10.153,23.807-10.153,8.06,0,28.358,2.451,29.758,1.75s2.1-53.915.7-54.615c-9.1-4.551-33.892-2.682-40.611,1.051-6.3,3.5-16.805,11.9-20.306,11.9s-201.93-.811-202.705-.7c-1.226.175-1.751,1.05-2.1,2.8,0,0-3.151,49.014-2.451,49.364s11.2,2.1,18.205-4.551l-3.151-21.706" fill="none"/>
    </clipPath>
    <clipPath id="clip-path-5">
      <path id="Trazado_2688" data-name="Trazado 2688" d="M-585.6-1026.4c-1.476-5-11.755-6.028-11.755-6.028l0,0a9.27,9.27,0,0,0,1.054-2.758c-.14-.141-3.614-3.6-5.793-4.338.539-.776,1.734-3.678-.994-12.45l.077-.024s4.391-1.1,9.957-3.122a77.685,77.685,0,0,0,13.508-6.249c12.049-7.363,31.461-8.367,31.461-8.367a22.526,22.526,0,0,1-.335,3.347s-1.673,9.706-8.367,15.061c-6.265,5.01-11.356,5.04-18.843,17.916a22.68,22.68,0,0,0-8.786-1.5c.753,3.956.891,7.959-.652,10.529a1.319,1.319,0,0,1-.466.288A4.558,4.558,0,0,0-585.6-1026.4Z" fill="none"/>
    </clipPath>
    <clipPath id="clip-path-6">
      <path id="Trazado_2691" data-name="Trazado 2691" d="M-634.743-1072.742a8.1,8.1,0,0,0-3.548,6.185c-2.219-.632-6.841,3.836-3.909,6.587-10.433-2.621-18.515,4.625-18.515,4.625.334,2.009.692,6.694-1.674,6.694-1.673,0-1.339-.335-2.343-1-.836-.555-1.673.335-2.342,0-.9-.448-1.128-1.088-2.009-1.673-1-.67-6.359.669,2.176-7.364A51.565,51.565,0,0,1-634.743-1072.742Z" fill="none"/>
    </clipPath>
    <clipPath id="clip-path-7">
      <path id="Trazado_2693" data-name="Trazado 2693" d="M-604.989-1051.328c3.012,4.685,1.673,10.375,1.673,10.375s-8.7-6.694-12.384-6.694-4.6,3.381-11.044.67c-6.359-2.678-9.224-13.207-9.224-13.207a13.815,13.815,0,0,0,2.7-2.691c8.367-.67,9.372-4.686,9.372-4.686,2.677,5.355,7.028,5.355,7.028,5.355s-3.347-5.355,1-4.016,1.674,6.359,1.674,6.359-.65,3.471,3.464,4.823C-608.433-1050.046-604.989-1051.328-604.989-1051.328Z" fill="none"/>
    </clipPath>
    <clipPath id="clip-No_se_encontró_la_página_Completo">
      <rect width="891" height="465"/>
    </clipPath>
  </defs>
  <g id="No_se_encontró_la_página_Completo" data-name="No se encontró la página Completo" clip-path="url(#clip-No_se_encontró_la_página_Completo)">
    <rect width="891" height="465" fill="#fff"/>
    <g id="Componente_376_1" data-name="Componente 376 – 1" transform="translate(36 64)">
      <g id="Componente_360_13" data-name="Componente 360 – 13" transform="translate(0 203)">
        <g transform="matrix(1, 0, 0, 1, -36, -267)" filter="url(#Rectángulo_2114)">
          <rect id="Rectángulo_2114-2" data-name="Rectángulo 2114" width="113" height="39" rx="4" transform="translate(36 267)" fill="#006c5b"/>
        </g>
        <text id="Regresar" transform="translate(20 25)" fill="#fff" font-size="16" font-family="Montserrat-Medium, Montserrat" font-weight="500"><tspan x="0" y="0">Regresar</tspan></text>
      </g>
      <g id="Componente_373_3" data-name="Componente 373 – 3" transform="translate(481)">
        <g id="Grupo_5532" data-name="Grupo 5532" transform="translate(764.5 1210)">
          <path id="Trazado_2453" data-name="Trazado 2453" d="M-619.441-1094.242l-.788-3.985c-.015-.095-.028-.181-.039-.26s-.017-.147-.021-.2q-.042-.512.819-1.276l.358-.316a5.283,5.283,0,0,0,1.247-1.7,3.9,3.9,0,0,0,.3-1.886,2.661,2.661,0,0,0-.882-1.876,2.519,2.519,0,0,0-1.94-.592,2.441,2.441,0,0,0-1.719.749,2.322,2.322,0,0,0-.484,1.788l.023.285-1.071.087-.008-.1a3.378,3.378,0,0,1,.826-2.683,3.972,3.972,0,0,1,2.72-1.184,4.914,4.914,0,0,1,3.486.9,3.9,3.9,0,0,1,1.553,2.935,4.63,4.63,0,0,1-.295,2.054,4.714,4.714,0,0,1-1.16,1.74q-.233.235-.656.628a7.4,7.4,0,0,0-.964.976,2.3,2.3,0,0,0-.32.781,11.016,11.016,0,0,0-.193,1.62l-.11,1.459Zm.63,3.507a1.36,1.36,0,0,1-1.039-.336,1.376,1.376,0,0,1-.491-.966,1.376,1.376,0,0,1,.324-1.038,1.359,1.359,0,0,1,.978-.492,1.384,1.384,0,0,1,1.039.335,1.358,1.358,0,0,1,.5.966,1.358,1.358,0,0,1-.342,1.034A1.388,1.388,0,0,1-618.811-1090.735Z" fill="#33ab9a"/>
        </g>
        <g id="Grupo_5533" data-name="Grupo 5533" transform="translate(764.5 1210)">
          <path id="Trazado_2454" data-name="Trazado 2454" d="M-608.651-1090.167a1.483,1.483,0,0,1-.935-.742,1.508,1.508,0,0,1-.131-1.177,1.514,1.514,0,0,1,.729-.938,1.49,1.49,0,0,1,1.19-.127,1.514,1.514,0,0,1,.935.742,1.488,1.488,0,0,1,.143,1.18,1.486,1.486,0,0,1-.746.927A1.515,1.515,0,0,1-608.651-1090.167Zm.7-3.829.724-4.379c.02-.1.04-.2.06-.281s.038-.156.054-.215q.155-.539,1.329-.99l.487-.186a5.767,5.767,0,0,0,1.928-1.261,4.246,4.246,0,0,0,1.028-1.815,2.91,2.91,0,0,0-.182-2.257,2.754,2.754,0,0,0-1.758-1.351,2.662,2.662,0,0,0-2.045.107,2.535,2.535,0,0,0-1.182,1.643l-.086.3-1.129-.323.028-.1a3.693,3.693,0,0,1,1.876-2.428,4.336,4.336,0,0,1,3.236-.166,5.359,5.359,0,0,1,3.221,2.258,4.271,4.271,0,0,1,.463,3.6,5.061,5.061,0,0,1-1.091,1.987,5.179,5.179,0,0,1-1.854,1.336q-.328.15-.913.39a8.056,8.056,0,0,0-1.36.628,2.5,2.5,0,0,0-.627.676,12.018,12.018,0,0,0-.82,1.583l-.672,1.45Z" fill="#33ab9a"/>
        </g>
        <g id="Grupo_5534" data-name="Grupo 5534" transform="translate(764.5 1210)">
          <path id="Trazado_2455" data-name="Trazado 2455" d="M-629.1-1089.983l-3.29-4.837a5.831,5.831,0,0,1-.912-1.763,1.167,1.167,0,0,1,.232-1.029,1.318,1.318,0,0,1,.878-.5,1.184,1.184,0,0,1,.934.274,1.944,1.944,0,0,1,.513.691,6.82,6.82,0,0,1,.4,1.272Z" fill="#33ab9a"/>
        </g>
        <g id="Grupo_5535" data-name="Grupo 5535" transform="translate(764.5 1210)">
          <path id="Trazado_2456" data-name="Trazado 2456" d="M-634.731-1086.143l-4.591-2.495a5.188,5.188,0,0,1-1.445-1.027,1.041,1.041,0,0,1-.236-.913,1.171,1.171,0,0,1,.493-.754,1.058,1.058,0,0,1,.853-.164,1.743,1.743,0,0,1,.691.339,6.183,6.183,0,0,1,.837.847Z" fill="#33ab9a"/>
        </g>
        <g id="Grupo_5536" data-name="Grupo 5536" transform="translate(764.5 1210)">
          <path id="Trazado_2457" data-name="Trazado 2457" d="M-595.091-1082.846l3.936-4.074a5.657,5.657,0,0,1,1.491-1.213,1.128,1.128,0,0,1,1.021.018,1.279,1.279,0,0,1,.647.733,1.149,1.149,0,0,1-.077.939,1.853,1.853,0,0,1-.554.623,6.64,6.64,0,0,1-1.126.63Z" fill="#33ab9a"/>
        </g>
        <g id="Grupo_5537" data-name="Grupo 5537" transform="translate(764.5 1210)">
          <path id="Trazado_2458" data-name="Trazado 2458" d="M-599.246-1086.934l1.262-5.071a5.2,5.2,0,0,1,.63-1.657,1.038,1.038,0,0,1,.824-.458,1.177,1.177,0,0,1,.854.287,1.058,1.058,0,0,1,.373.785,1.728,1.728,0,0,1-.154.754,6.2,6.2,0,0,1-.609,1.023Z" fill="#33ab9a"/>
        </g>
        <path id="Trazado_2459" data-name="Trazado 2459" d="M-741.3-1017.5c3.679-10.61,34.359-5.9,77.371-7.352,44.5-1.5,46.723-7.721,82.973-9.8,58.455-3.357,130.578,8.348,131.636,23.456,1.021,14.573-63.137,45.662-124.984,36.06-48.226-7.487-65.443-35.119-107.48-26.257-15.158,3.2-35.121,11.469-49.714,1.05C-737.015-1004.282-743.226-1011.938-741.3-1017.5Z" transform="translate(764.5 1210)" fill="#e6d3e6" opacity="0.5"/>
        <rect id="Rectángulo_2104" data-name="Rectángulo 2104" width="12.954" height="28.358" rx="2.976" transform="translate(286.299 167.472)" fill="#66c0b3"/>
        <rect id="Rectángulo_2105" data-name="Rectángulo 2105" width="12.954" height="28.358" rx="3.014" transform="translate(45.083 167.472)" fill="#66c0b3"/>
        <rect id="Rectángulo_2106" data-name="Rectángulo 2106" width="266.424" height="27.658" rx="4.894" transform="translate(39.131 139.114)" fill="#e6d3e6"/>
        <path id="Trazado_2644" data-name="Trazado 2644" d="M-709.615-1023.973c.35,3.151,6.652,2.8,9.8-.7,3.461-3.846,11.323-14.331,19.5-19.923,4.656-3.184,7.106-7.735,9.907-10.536,2.666-2.666,13.7,9.337,25.207,13.654,14,5.251,28.358,17.855,36.76,19.605s18.555,3.5,25.907,2.1,61.3-1.8,68.619-1.05c17.155,1.75,13.654-10.153,23.807-10.153,8.06,0,28.358,2.451,29.758,1.75s2.1-53.915.7-54.615c-9.1-4.551-33.892-2.682-40.611,1.051-6.3,3.5-16.805,11.9-20.306,11.9s-201.93-.811-202.705-.7c-1.226.175-1.926.875-2.1,2.8,0,0-3.151,49.014-2.451,49.364s11.2,2.1,18.205-4.551l-3.151-21.706" transform="translate(764.5 1210)" fill="#9a519c"/>
        <path id="Trazado_2645" data-name="Trazado 2645" d="M-507.394-1031.076c5.359,3.4,11.724,8.317,11.514,10.2-.335,3.013-4.351,6.025-9.706,5.356s-10.711-5.356-13.388-5.021-7.009,1.018-7.009,1.018a35.817,35.817,0,0,1,4.649-14.084s.844-.178,2-.385a34.467,34.467,0,0,1,5.048-.606C-513.415-1034.594-510.583-1033.1-507.394-1031.076Z" transform="translate(764.5 1210)" fill="#007161"/>
        <path id="Trazado_2646" data-name="Trazado 2646" d="M-519.978-1049.99c2.343,0,18.742,10.711,18.408,13.723-.248,2.225-2.5,4.451-5.824,5.191-3.189-2.025-6.021-3.518-6.894-3.518a34.467,34.467,0,0,0-5.048.606c-.478-.248-.94-.485-1.382-.706.234-.409.482-.82.74-1.239,0,0-.419.007-1.158.024-1.972-2.092-4.9-9.843-6.048-13.033l.161-.057A48.673,48.673,0,0,1-519.978-1049.99Z" transform="translate(764.5 1210)" fill="#004b41"/>
        <path id="Trazado_2647" data-name="Trazado 2647" d="M-549.6-1033.3c7.022-1.981,23.9-2.5,28.466-2.607.739-.017,1.158-.024,1.158-.024-.258.419-.506.83-.74,1.239-.217.368-.422.733-.616,1.091a35.817,35.817,0,0,0-4.649,14.084,13.957,13.957,0,0,0-.02,2.664c-36.481,5.689-59.574,2.008-51.207-13.723q.8-1.51,1.573-2.834c7.487-12.876,12.578-12.906,18.843-17.916,6.694-5.355,8.367-15.061,8.367-15.061s17.32,9.85,10.111,22.651C-540.183-1040.417-543.7-1036.9-549.6-1033.3Z" transform="translate(764.5 1210)" fill="#411342"/>
        <path id="Trazado_2648" data-name="Trazado 2648" d="M-527.184-1048.942c1.148,3.19,4.076,10.941,6.048,13.033-4.569.107-21.444.626-28.466,2.607,5.9-3.594,9.419-7.115,11.286-10.436l10.64-6.586S-527.495-1049.8-527.184-1048.942Z" transform="translate(764.5 1210)" fill="#200921"/>
        <path id="Trazado_2649" data-name="Trazado 2649" d="M-585.6-1026.4c-1.476-5-11.755-6.028-11.755-6.028l0,0a9.27,9.27,0,0,0,1.054-2.758c-.14-.141-3.614-3.6-5.793-4.338.539-.776,1.734-3.678-.994-12.45l.077-.024s4.391-1.1,9.957-3.122a77.685,77.685,0,0,0,13.508-6.249c12.049-7.363,31.461-8.367,31.461-8.367a22.526,22.526,0,0,1-.335,3.347s-1.673,9.706-8.367,15.061c-6.265,5.01-11.356,5.04-18.843,17.916a22.68,22.68,0,0,0-8.786-1.5c.753,3.956.891,7.959-.652,10.529a1.319,1.319,0,0,1-.466.288A4.558,4.558,0,0,0-585.6-1026.4Z" transform="translate(764.5 1210)" fill="#009681"/>
        <path id="Trazado_2650" data-name="Trazado 2650" d="M-585.6-1026.4a4.558,4.558,0,0,1,.063,2.3,5.011,5.011,0,0,1-1.891.224Q-586.5-1025.044-585.6-1026.4Z" transform="translate(764.5 1210)" fill="#007161"/>
        <path id="Trazado_2651" data-name="Trazado 2651" d="M-587.432-1023.874c-16.57,20.754-42.325-.679-42.325-.679-6.359,5.69-8.367,1-9.371,0a20.061,20.061,0,0,1-2.192-2.694h0c-1.172-1.754-1.878-3.665.522-3.665a8.492,8.492,0,0,0,.87-.04c2.661-.288,1.145-1.952.984-2.122l-.014-.014s2.343-1.338,6.36,0c7.028,2.343,22.759,10.376,30.122,5.69a14.779,14.779,0,0,0,5.117-5.03l0,0s10.279,1.027,11.755,6.028Q-586.5-1025.043-587.432-1023.874Z" transform="translate(764.5 1210)" fill="#cceae6"/>
        <path id="Trazado_2652" data-name="Trazado 2652" d="M-593.061-1055.124v0c-5.566,2.018-9.957,3.122-9.957,3.122l-.077.024q-.105-.342-.221-.693s-1.339.335-1.673,1.339c0,0-3.444,1.282-5.74-3.712a12.482,12.482,0,0,0,3.9.532c6.727,0,6.53-5.412,6.2-7.53A14.516,14.516,0,0,1-593.061-1055.124Z" transform="translate(764.5 1210)" fill="#99d5cd"/>
        <path id="Trazado_2653" data-name="Trazado 2653" d="M-599.467-1069.9c2.677,7.029-1.339,7.029-1.339,7.029a7.731,7.731,0,0,1,.171.837c.335,2.118.532,7.53-6.2,7.53a12.482,12.482,0,0,1-3.9-.532c-4.114-1.352-3.464-4.823-3.464-4.823s2.677-5.02-1.674-6.359-1,4.016-1,4.016-4.351,0-7.028-5.355c0,0-1.005,4.016-9.372,4.686a13.815,13.815,0,0,1-2.7,2.691c-1.587,1.164-3.672,1.988-5.67.656a4.348,4.348,0,0,1-.562-.442c-2.932-2.751,1.69-7.219,3.909-6.587a8.1,8.1,0,0,1,3.548-6.185h0a9.546,9.546,0,0,1,1.469-.843c5.021-2.343,6.694.669,6.694.669s0-9.706,10.71-10.041,6.025,10.041,6.025,10.041S-602.145-1076.932-599.467-1069.9Z" transform="translate(764.5 1210)" fill="#002620"/>
        <path id="Trazado_2654" data-name="Trazado 2654" d="M-603.095-1051.974c2.728,8.772,1.533,11.674.994,12.45a1.178,1.178,0,0,1-.211.245,8.6,8.6,0,0,0-1.673-.67l.669-1s1.339-5.69-1.673-10.375c.334-1,1.673-1.339,1.673-1.339Q-603.2-1052.316-603.095-1051.974Z" transform="translate(764.5 1210)" fill="#007161"/>
        <path id="Trazado_2655" data-name="Trazado 2655" d="M-604.989-1051.328c3.012,4.685,1.673,10.375,1.673,10.375s-8.7-6.694-12.384-6.694-4.6,3.381-11.044.67c-6.359-2.678-9.224-13.207-9.224-13.207a13.815,13.815,0,0,0,2.7-2.691c8.367-.67,9.372-4.686,9.372-4.686,2.677,5.355,7.028,5.355,7.028,5.355s-3.347-5.355,1-4.016,1.674,6.359,1.674,6.359-.65,3.471,3.464,4.823C-608.433-1050.046-604.989-1051.328-604.989-1051.328Z" transform="translate(764.5 1210)" fill="#cceae6"/>
        <path id="Trazado_2656" data-name="Trazado 2656" d="M-638.947-1033.074c.161.17,1.677,1.834-.984,2.122v0l-2.778-2.189,0,0,.712-.944Z" transform="translate(764.5 1210)" fill="#002620"/>
        <path id="Trazado_2657" data-name="Trazado 2657" d="M-643.633-1038.356c.68.68,2.638,2.956,1.965,3.826l-.024.03a.666.666,0,0,1-.133.117c-1.085.723-3.25,0-4.7-1.084-1.352-1.014-2.989-3.565-2.326-4.522l.04-.054a.607.607,0,0,1,.12-.117C-647.244-1041.244-644.356-1039.075-643.633-1038.356Z" transform="translate(764.5 1210)" fill="#cceae6"/>
        <path id="Trazado_2658" data-name="Trazado 2658" d="M-649.835-1038.677l.988-1.312c-.663.957.974,3.508,2.326,4.522,1.446,1.084,3.611,1.807,4.7,1.084a.666.666,0,0,0,.133-.117l-.308.408-.712.944,0,0a.73.73,0,0,1-.124.1c-1.081.723-3.246,0-4.692-1.085a7.18,7.18,0,0,1-1.376-1.442c-.82-1.118-1.385-2.44-.957-3.073Z" transform="translate(764.5 1210)" fill="#004b41"/>
        <path id="Trazado_2659" data-name="Trazado 2659" d="M-624.113-1050.994a27.19,27.19,0,0,1-2.358,1.355c.334-1.339-.346-5.668-.346-5.668a44.781,44.781,0,0,1,1.225,4.726A3.76,3.76,0,0,0-624.113-1050.994Z" transform="translate(764.5 1210)" fill="#66c0b3"/>
        <path id="Trazado_2660" data-name="Trazado 2660" d="M-630.122-1055.664c.529-.529,1.339,0,1.673.669s.67,1.674,0,2.343c-.586.587-1.49-.521-1.751-.967A1.8,1.8,0,0,1-630.122-1055.664Z" transform="translate(764.5 1210)" fill="#002620"/>
        <path id="Trazado_2661" data-name="Trazado 2661" d="M-625.771-1058.341c.529-.53,1.339,0,2.008.669a1.615,1.615,0,0,1,.335,2.008c-.335.335-1.339-.335-1.674-.669S-626.44-1057.672-625.771-1058.341Z" transform="translate(764.5 1210)" fill="#002620"/>
        <path id="Trazado_2662" data-name="Trazado 2662" d="M-628.042-1060.033a3.78,3.78,0,0,1,2.8-1.4" transform="translate(764.5 1210)" fill="none" stroke="#002620" stroke-linecap="round" stroke-linejoin="round" stroke-width="0.35"/>
        <path id="Trazado_2663" data-name="Trazado 2663" d="M-632.593-1057.232a2.029,2.029,0,0,1,1.832-1.125" transform="translate(764.5 1210)" fill="none" stroke="#002620" stroke-linecap="round" stroke-linejoin="round" stroke-width="0.35"/>
        <path id="Trazado_2664" data-name="Trazado 2664" d="M-621.907-1050.857s.571-1.821,1.792-2.082" transform="translate(764.5 1210)" fill="none" stroke="#002620" stroke-linecap="round" stroke-linejoin="round" stroke-width="0.35"/>
        <path id="Trazado_2665" data-name="Trazado 2665" d="M-521.176-1035.951c.312-.982.876-2.44,1.533-2.659" transform="translate(764.5 1210)" fill="none" stroke="#002620" stroke-linecap="round" stroke-linejoin="round" stroke-width="0.35"/>
        <path id="Trazado_2666" data-name="Trazado 2666" d="M-518.308-1034.162a4.013,4.013,0,0,1,1.342-2.44" transform="translate(764.5 1210)" fill="none" stroke="#002620" stroke-linecap="round" stroke-linejoin="round" stroke-width="0.35"/>
        <g id="Grupo_5611" data-name="Grupo 5611" transform="translate(764.5 1210)">
          <g id="Grupo_5610" data-name="Grupo 5610" clip-path="url(#clip-path)">
            <path id="Trazado_2667" data-name="Trazado 2667" d="M-524.764-1025.6c1.575-.3,5.777-1,7.177-.646s10.153,5.952,14,5.6,7.352-1.051,8.4-2.451,1.4,2.451.7,3.5-3.851,5.952-7,5.952-11.553-4.552-15.054-5.252-7.352.35-8.753.35-5.251-2.1-3.5-3.851A27.685,27.685,0,0,1-524.764-1025.6Z" fill="#004b41"/>
          </g>
        </g>
        <path id="Trazado_2669" data-name="Trazado 2669" d="M-615.964-1063.009c-.35-1.4-.7-2.1.7-2.1C-615.964-1065.46-618.064-1066.51-615.964-1063.009Z" transform="translate(764.5 1210)" fill="#99d5cd"/>
        <path id="Trazado_2670" data-name="Trazado 2670" d="M-616.314-1064.759a6.529,6.529,0,0,1,1.4,1.05,2.737,2.737,0,0,0-1.05-1.4C-616.664-1065.46-616.757-1064.981-616.314-1064.759Z" transform="translate(764.5 1210)" fill="#99d5cd"/>
        <g id="Grupo_5613" data-name="Grupo 5613" transform="translate(764.5 1210)">
          <g id="Grupo_5612" data-name="Grupo 5612" clip-path="url(#clip-path-2)">
            <path id="Trazado_2671" data-name="Trazado 2671" d="M-588.422-1029.683s-6.543,10.387-16.689,11.836c-9.8,1.4-25.207-8.4-25.207-8.4a5.392,5.392,0,0,1-4.551,2.8,14.683,14.683,0,0,1-5.6-.35s2.1,3.851,5.6,3.5,5.6-1.4,6.652-.7,20.3,9.452,25.207,8.4,20.3-10.153,20.655-12.6S-588.422-1029.683-588.422-1029.683Z" fill="#99d5cd"/>
            <path id="Trazado_2672" data-name="Trazado 2672" d="M-640.928-1030.91s5.154.05,4.659-.94c-.351-.7-1.051-1.051-3.151-1.4C-641.28-1033.561-640.928-1030.91-640.928-1030.91Z" fill="#99d5cd"/>
          </g>
        </g>
        <g id="Grupo_5615" data-name="Grupo 5615" transform="translate(764.5 1210)">
          <g id="Grupo_5614" data-name="Grupo 5614" clip-path="url(#clip-path-3)">
            <path id="Trazado_2674" data-name="Trazado 2674" d="M-524.94-1025.008c-2.1.16-27.714,9.138-52.017,5.174s19.109,10.39,27.862,7.589,24.156-3.851,24.156-3.851Z" fill="#200921"/>
            <path id="Trazado_2675" data-name="Trazado 2675" d="M-548.4-1066.51l3.851,2.1s-1.4,3.5-7.579,7.611C-557.818-1053.008-548.4-1066.51-548.4-1066.51Z" fill="#200921"/>
          </g>
        </g>
        <path id="Trazado_2677" data-name="Trazado 2677" d="M-515.746-1019.648s.788-3.232,1.792-3.566" transform="translate(764.5 1210)" fill="none" stroke="#002620" stroke-linecap="round" stroke-linejoin="round" stroke-width="0.35"/>
        <g id="Grupo_5617" data-name="Grupo 5617" transform="translate(764.5 1210)">
          <g id="Grupo_5616" data-name="Grupo 5616" clip-path="url(#clip-path-4)">
            <path id="Trazado_2678" data-name="Trazado 2678" d="M-712.941-1046.2l3.851,25.907-3.851,1.05S-712.24-1028.349-712.941-1046.2Z" fill="#812583"/>
            <path id="Trazado_2679" data-name="Trazado 2679" d="M-662.177-1055.657c-2.061-1.125-8.752-2.451-10.5-2.1s-18.108,4.5-23.107,3.5c-5.251-1.05-6.652-1.4-12.953-8.4a18.8,18.8,0,0,0,13.3,5.952c5.294.212,19.877-1.785,22.406-2.1,2.8-.35,8.4.35,11.2,1.751,4.624,2.311,11.554,7.352,15.755,8.752s21.006,9.8,21.006,9.8-19.218-7.445-21.706-8.4C-651.324-1048.655-658.326-1053.556-662.177-1055.657Z" fill="#812583"/>
            <path id="Trazado_2680" data-name="Trazado 2680" d="M-674.78-1049.7s2.1-5.952,5.251-6.652C-668.12-1056.67-674.78-1049.7-674.78-1049.7Z" fill="#812583"/>
            <path id="Trazado_2681" data-name="Trazado 2681" d="M-491.329-1030.45c-2.1-2.1-4.552-15.4-4.552-15.4s-.35,16.1-.7,18.555S-488.842-1027.962-491.329-1030.45Z" fill="#812583"/>
            <path id="Trazado_2682" data-name="Trazado 2682" d="M-465.422-1085.765c3.5,2.1,6.3,10.5,6.652,15.754,1.05,3.5.7-16.454.7-16.454Z" fill="#812583"/>
            <path id="Trazado_2683" data-name="Trazado 2683" d="M-459.212-1044.7s-1.309,14.6-5.86,15.3c-4.512.694,8.052,3.5,7,0S-459.212-1044.7-459.212-1044.7Z" fill="#812583"/>
          </g>
        </g>
        <path id="Trazado_2685" data-name="Trazado 2685" d="M-512.707-1018.106a4.559,4.559,0,0,1,1.431-3.1" transform="translate(764.5 1210)" fill="none" stroke="#002620" stroke-linecap="round" stroke-linejoin="round" stroke-width="0.35"/>
        <g id="Grupo_5619" data-name="Grupo 5619" transform="translate(764.5 1210)">
          <g id="Grupo_5618" data-name="Grupo 5618" clip-path="url(#clip-path-5)">
            <path id="Trazado_2686" data-name="Trazado 2686" d="M-588.422-1029.683c.816-3.568.407-8.227-.935-13.02a53.676,53.676,0,0,0,19.956.7c10.4-1.733-5.6,9.8-5.6,9.8l-10.5,10.152Z" fill="#007161"/>
            <path id="Trazado_2687" data-name="Trazado 2687" d="M-596.336-1035.166a34.18,34.18,0,0,0,.328-3.686,17.945,17.945,0,0,0-1.4,3.5c0,.518.575.461.874.4A.251.251,0,0,0-596.336-1035.166Z" fill="#007161"/>
          </g>
        </g>
        <path id="Trazado_2689" data-name="Trazado 2689" d="M-634.743-1072.742a8.1,8.1,0,0,0-3.548,6.185c-2.219-.632-6.841,3.836-3.909,6.587-10.433-2.621-18.515,4.625-18.515,4.625.334,2.009.692,6.694-1.674,6.694-1.673,0-1.339-.335-2.343-1-.836-.555-1.673.335-2.342,0-.9-.448-1.128-1.088-2.009-1.673-1-.67-6.359.669,2.176-7.364A51.565,51.565,0,0,1-634.743-1072.742Z" transform="translate(764.5 1210)" fill="#cceae6"/>
        <g id="Grupo_5621" data-name="Grupo 5621" transform="translate(764.5 1210)">
          <g id="Grupo_5620" data-name="Grupo 5620" clip-path="url(#clip-path-6)">
            <path id="Trazado_2690" data-name="Trazado 2690" d="M-664.977-1049.7s2.1.35,2.8-.7.7-5.6.7-5.6,8.052-9.1,19.955-7.7-3.151,5.251-3.151,5.251-5.951-1.75-9.1,1.051-5.252,10.152-8.053,10.152A2.994,2.994,0,0,1-664.977-1049.7Z" fill="#99d5cd"/>
          </g>
        </g>
        <g id="Grupo_5623" data-name="Grupo 5623" transform="translate(764.5 1210)">
          <g id="Grupo_5622" data-name="Grupo 5622" clip-path="url(#clip-path-7)">
            <path id="Trazado_2692" data-name="Trazado 2692" d="M-617.4-1047.393c.723-.259,3.189-1.612,3.189-1.612a24.833,24.833,0,0,0,4.17,3.554C-607.912-1044.1-617.4-1047.393-617.4-1047.393Z" fill="#99d5cd"/>
          </g>
        </g>
        <rect id="Rectángulo_2120" data-name="Rectángulo 2120" width="338" height="338" fill="none"/>
      </g>
      <text id="No_se_encontró_la_página" data-name="No se encontró la página" transform="translate(129 116)" fill="#222" font-size="20" font-family="Montserrat-SemiBold, Montserrat" font-weight="600"><tspan x="-128.52" y="0">No se encontró la página</tspan></text>
      <text id="La_página_a_la_que_accediste_no_está_disponible_o_no_existe._Probá_regresar_a_la_página_anterior." data-name="La página a la que accediste no está disponible o no existe. 
Probá regresar a la página anterior." transform="translate(0 133)" fill="#aaa" font-size="16" font-family="SourceSansPro-Regular, Source Sans Pro"><tspan x="0" y="16">La página a la que accediste no está disponible o no existe. </tspan><tspan x="0" y="37">Probá regresar a la página anterior.</tspan></text>
    </g>
  </g>
</svg>
