<svg xmlns="http://www.w3.org/2000/svg" xmlns:xlink="http://www.w3.org/1999/xlink" width="891" height="465" viewBox="0 0 891 465">
  <defs>
    <filter id="Rectángulo_2114" x="30" y="273" width="126" height="51" filterUnits="userSpaceOnUse">
      <feOffset dy="2" input="SourceAlpha"/>
      <feGaussianBlur stdDeviation="2" result="blur"/>
      <feFlood flood-opacity="0.149"/>
      <feComposite operator="in" in2="blur"/>
      <feComposite in="SourceGraphic"/>
    </filter>
    <clipPath id="clip-path">
      <path id="Trazado_2709" data-name="Trazado 2709" d="M-203.734-932.937l2.477,3.4-7.374,3.687a9.881,9.881,0,0,1-1.475-3.318Z" fill="none"/>
    </clipPath>
    <clipPath id="clip-path-2">
      <path id="Trazado_2741" data-name="Trazado 2741" d="M-112.767-1114.81s3.894,13.059-2.949,18.435c-5.162,4.056-7.065,3.982-8.481,5.162-2.212,1.844-1.843,4.793-1.474,5.9,0,0-1.457,2.547-2.95,3.318-3.141,1.615-7.625,1.331-7.374-5.162,0,0,3.1-3.7,2.26-10.814a25.441,25.441,0,0,0-1.154-5.041c-.17-.5-1.438-1.257-2.518-2.363-1.306-1.338-2.334-3.2-.8-5.748a2.5,2.5,0,0,1,.228-.328c2.246-2.906,6.04,3.646,6.04,3.646s-.141-6.072,2.581-8.111C-124.934-1119.235-119.772-1115.916-112.767-1114.81Z" fill="none"/>
    </clipPath>
    <clipPath id="clip-path-3">
      <path id="Trazado_2746" data-name="Trazado 2746" d="M-152.222-1060.245c-2.891,2.529-6.088,5.734-7.371,8.484a26.289,26.289,0,0,1-1.626-2.537,29.342,29.342,0,0,1-4.081-13.454,100.447,100.447,0,0,1,18.612-15.349l10.693-4.056c-.251,6.493,4.233,6.777,7.374,5.162,1.493-.771,2.95-3.318,2.95-3.318l7.374,2.949c2.879,7.577,5.91,13.167,9,17.164-1.644,1.633-5.682,7.872-8.126,11.743-1.177,1.858-1.98,3.171-1.98,3.171l-1.781-2.533a59.353,59.353,0,0,0-.432,32.4,3.139,3.139,0,0,1-.63.483h0c-1.353.856-5.143,2.493-13.874,2.01-1.829-5.6-4.93-12.2-6.508-13.554,0,0-7.448,2.946-17.326,7.43a16.2,16.2,0,0,1-4.476-1.656,1.678,1.678,0,0,1-.321-.243c3.319-5.162,13.643-17.33,14.011-20.648S-152.222-1060.245-152.222-1060.245Z" fill="none"/>
    </clipPath>
    <clipPath id="clip-path-4">
      <path id="Trazado_2750" data-name="Trazado 2750" d="M-164.7-1021.866c3.267,1.707,5.841,9.188,5.841,9.188s-3.687-.737-5.531-3.318c-.911-1.272.623,6.312-2.95,7.743-1.843.737-.368-8.849-1.106-9.218-1.043-.52-7.374,12.905-8.48,14.748,0,0,.616-8.638,2.467-14.394a10.5,10.5,0,0,1,2.326-4.41s-17.167-20.286,6.829-46.225a29.342,29.342,0,0,0,4.081,13.454c-11.548,15.9-7.481,27.606-4.708,31.271a3.931,3.931,0,0,0,1.172,1.132C-164.736-1021.884-164.714-1021.877-164.7-1021.866Z" fill="none"/>
    </clipPath>
    <clipPath id="clip-path-5">
      <path id="Trazado_2753" data-name="Trazado 2753" d="M-60.41-1080.152c.144.723-3.687,2.581-4.793,2.95,0,0,.376,2.327-2.577,5.033.132,2.039.269,3.9.391,5.339v0c-.248.309-11.906,15.1-19.568,18.383-7.743,3.319-23.693.66-30.466-5.014,2.444-3.871,6.482-10.11,8.126-11.743,16.293,21.094,34.1-2.183,38.563-12a5.758,5.758,0,0,1,2.5-2.522C-65.162-1081.468-60.683-1081.512-60.41-1080.152Z" fill="none"/>
    </clipPath>
    <clipPath id="clip-path-6">
      <path id="Trazado_2755" data-name="Trazado 2755" d="M-52.143-1079.455c1.814-.748,3.477-.947,3.9.041.328.77-2.058,2.931-4.513,4.347-2,1.15-4.041,1.807-4.7.815C-58.371-1075.616-55.064-1078.249-52.143-1079.455Z" fill="none"/>
    </clipPath>
    <clipPath id="clip-path-7">
      <path id="Trazado_2757" data-name="Trazado 2757" d="M-47.874-1083.47c.166.822-1.847,2.146-4.17,3.271v0c-2.89,1.394-6.26,2.478-6.522,1.888-.94-2.116,3.514-4.38,6.965-5.269C-49.643-1084.078-48.006-1084.137-47.874-1083.47Z" fill="none"/>
    </clipPath>
    <clipPath id="clip-path-8">
      <path id="Trazado_2759" data-name="Trazado 2759" d="M-47.874-1087.157c.166,1.161-1.585,2.091-3.609,2.666-2.474.7-5.354.874-5.608.284-.705-1.648,3.093-3.444,6.032-3.857C-49.393-1088.3-48.006-1088.09-47.874-1087.157Z" fill="none"/>
    </clipPath>
    <clipPath id="clip-path-9">
      <path id="Trazado_2762" data-name="Trazado 2762" d="M-50.823-1091.582a20.968,20.968,0,0,1-.236,3.518c-2.939.413-6.737,2.209-6.032,3.857.254.59,3.134.42,5.608-.284-.037.3-.078.6-.118.914-3.451.889-7.9,3.153-6.965,5.269.262.59,3.632-.494,6.522-1.888-.033.244-.066.494-.1.741-2.921,1.206-6.228,3.839-5.317,5.2.664.992,2.706.335,4.7-.815-.808,5.652-1.6,10.611-1.755,10.77-.369.369-12.168.737-12.537.369a18.568,18.568,0,0,1-.342-2.9v0c-.122-1.438-.259-3.3-.391-5.339,2.953-2.706,2.577-5.033,2.577-5.033,1.106-.369,4.937-2.227,4.793-2.95-.273-1.36-4.752-1.316-7.824.428v0a94.122,94.122,0,0,1-.287-9.641c.324-.325,13.671-1.781,16.968-2.131Z" fill="none"/>
    </clipPath>
    <clipPath id="clip-path-10">
      <path id="Trazado_2765" data-name="Trazado 2765" d="M-89.169-937.092a5.9,5.9,0,0,1-1.493,1.386,16.661,16.661,0,0,1-4.528,1.962c-.808.228-1.353.339-1.353.339-4.425-12.168-45.72-67.474-45.72-67.474a6.242,6.242,0,0,0-2.95,0c-21.754,58.625-55.675,73-55.675,73l-1.018-1.81-1.828-3.252-.472-.837c25.441-17.329,30.569-57.172,30.569-57.172,15.681-6.994,37.793-17.241,38.748-19.151.571-1.143-.078-4.284-1.235-7.831,8.731.483,12.521-1.154,13.874-2.01h0C-119.9-1019-89.169-937.092-89.169-937.092Z" fill="none"/>
    </clipPath>
    <clipPath id="clip-path-11">
      <path id="Trazado_2767" data-name="Trazado 2767" d="M-204.206-912.389c1.474,3.687,3.687,5.162,1.843,7.006s-5.9,1.843-7,.737-12.536-17.329-13.643-21.385,13.274-6.268,13.274-6.268c.166.166-.2,1.4-.059,2.832a4.658,4.658,0,0,0,1.265,2.887,6.375,6.375,0,0,0,3.218,1.655S-205.681-916.076-204.206-912.389Z" fill="none"/>
    </clipPath>
    <clipPath id="clip-path-12">
      <path id="Trazado_2769" data-name="Trazado 2769" d="M-90.662-935.706l2.241,5.18a4.831,4.831,0,0,1-4.026,1.781l-2.743-5A16.661,16.661,0,0,0-90.662-935.706Z" fill="none"/>
    </clipPath>
    <clipPath id="clip-path-13">
      <path id="Trazado_2771" data-name="Trazado 2771" d="M-88.421-930.526a6.965,6.965,0,0,0,1.221-2.735s8.849.368,12.536-1.107,5.162-3.687,7.005-1.843,1.844,5.9.738,7.005-17.33,12.537-21.385,13.643-6.268-13.274-6.268-13.274a13.228,13.228,0,0,1,2.127.092A4.831,4.831,0,0,0-88.421-930.526Z" fill="none"/>
    </clipPath>
    <clipPath id="clip-Error_del_Servidor_Completo">
      <rect width="891" height="465"/>
    </clipPath>
  </defs>
  <g id="Error_del_Servidor_Completo" data-name="Error del Servidor Completo" clip-path="url(#clip-Error_del_Servidor_Completo)">
    <rect width="891" height="465" fill="#fff"/>
    <g id="Componente_378_1" data-name="Componente 378 – 1" transform="translate(36 64)">
      <g id="Componente_360_20" data-name="Componente 360 – 20" transform="translate(0 213)">
        <g transform="matrix(1, 0, 0, 1, -36, -277)" filter="url(#Rectángulo_2114)">
          <rect id="Rectángulo_2114-2" data-name="Rectángulo 2114" width="114" height="39" rx="4" transform="translate(36 277)" fill="#006c5b"/>
        </g>
        <text id="Recargar" transform="translate(20 25)" fill="#fff" font-size="16" font-family="Montserrat-Medium, Montserrat" font-weight="500"><tspan x="0" y="0">Recargar</tspan></text>
      </g>
      <text id="Error_del_servidor" data-name="Error del servidor" transform="translate(89 106)" fill="#222" font-size="20" font-family="Montserrat-SemiBold, Montserrat" font-weight="600"><tspan x="-89.01" y="0">Error del servidor</tspan></text>
      <text id="Tuvimos_un_error_de_nuestro_lado._Un_programador_ya_está_yendo_al_rescate_Espera_un_momento_y_volvé_a_intentar_recargando_la_página." data-name="Tuvimos un error de nuestro lado. ¡Un programador ya está 
yendo al rescate! 
Espera un momento y volvé a intentar recargando la página." transform="translate(0 123)" fill="#aaa" font-size="16" font-family="SourceSansPro-Regular, Source Sans Pro"><tspan x="0" y="16">Tuvimos un error de nuestro lado. ¡Un programador ya está </tspan><tspan x="0" y="37">yendo al rescate! </tspan><tspan x="0" y="58">Espera un momento y volvé a intentar recargando la página.</tspan></text>
      <g id="Componente_371_3" data-name="Componente 371 – 3" transform="translate(482)">
        <g id="Grupo_5656" data-name="Grupo 5656" transform="translate(336.5 1209.5)">
          <path id="Trazado_2704" data-name="Trazado 2704" d="M-92.856-915.523c24.782-.233,45.62.516,51.988-11.43,8.815-16.537-22.008-35.071-22.123-69.317-.128-38.226,37.662-45.684,40.558-81.854,3.154-39.386-37.532-83.251-81.853-96.97-41.473-12.838-76.582,3.675-112.611,20.621-24.448,11.5-73.388,34.517-75.062,68.238-1.083,21.807,19.035,29.406,15.117,51.988-4.489,25.876-31.325,29.371-35.4,51.25-4.642,24.944,23.828,54.832,49.775,69.318C-224.908-892.713-211.26-914.409-92.856-915.523Z" fill="#e6d3e6" opacity="0.5"/>
          <rect id="Rectángulo_2107" data-name="Rectángulo 2107" width="57.334" height="1.844" rx="0.922" transform="translate(-205.128 -963.455) rotate(180)" fill="#b37cb5"/>
          <rect id="Rectángulo_2108" data-name="Rectángulo 2108" width="57.334" height="1.844" rx="0.922" transform="translate(-195.91 -977.835) rotate(180)" fill="#b37cb5"/>
          <rect id="Rectángulo_2109" data-name="Rectángulo 2109" width="57.334" height="1.844" rx="0.922" transform="translate(-210.29 -992.122) rotate(180)" fill="#b37cb5"/>
          <rect id="Rectángulo_2110" data-name="Rectángulo 2110" width="57.334" height="1.844" rx="0.922" transform="translate(-191.855 -1026.873) rotate(-180)" fill="#b37cb5"/>
          <rect id="Rectángulo_2111" data-name="Rectángulo 2111" width="57.334" height="1.844" rx="0.922" transform="translate(-193.33 -1041.253) rotate(180)" fill="#b37cb5"/>
          <rect id="Rectángulo_2112" data-name="Rectángulo 2112" width="57.334" height="1.844" rx="0.922" transform="translate(-184.48 -1055.54) rotate(-180)" fill="#b37cb5"/>
          <path id="Trazado_2705" data-name="Trazado 2705" d="M-106.622-1144.123c.36-3.6-4.861-8.461-9.722-4.68,0,0,.54-11.7-8.1-13.143s-13.683,3.781-15.843,8.282c0,0-3.24-3.961-6.481-1.8-3.866,2.577-2.34,5.4-4.321,6.661s-9.721-.54-11.522,1.08a4.139,4.139,0,0,0-1.44,3.6Z" fill="#fff"/>
          <path id="Trazado_2706" data-name="Trazado 2706" d="M-251.032-1105.547c-.5-4.967,6.706-11.673,13.412-6.458,0,0-.745-16.144,11.177-18.131s18.876,5.216,21.857,11.425c0,0,4.471-5.464,8.941-2.483,5.334,3.555,3.229,7.451,5.961,9.189s13.413-.745,15.9,1.491a5.71,5.71,0,0,1,1.987,4.967Z" fill="#fff"/>
          <g id="Grupo_5655" data-name="Grupo 5655">
            <path id="Trazado_2707" data-name="Trazado 2707" d="M-203.734-932.937l2.477,3.4-7.374,3.687a9.881,9.881,0,0,1-1.475-3.318Z" fill="#cceae6"/>
            <g id="Grupo_5629" data-name="Grupo 5629">
              <g id="Grupo_5628" data-name="Grupo 5628" clip-path="url(#clip-path)">
                <path id="Trazado_2708" data-name="Trazado 2708" d="M-202.908-931.866l-7.2,4.176v-2.581l6.268-3.318Z" fill="#99d5cd"/>
              </g>
            </g>
            <path id="Trazado_2710" data-name="Trazado 2710" d="M-47.874-1087.157c.166,1.161-1.585,2.091-3.609,2.666-2.474.7-5.354.874-5.608.284-.705-1.648,3.093-3.444,6.032-3.857C-49.393-1088.3-48.006-1088.09-47.874-1087.157Z" fill="#cceae6"/>
            <path id="Trazado_2711" data-name="Trazado 2711" d="M-47.874-1083.47c.166.822-1.847,2.146-4.17,3.271v0c-2.89,1.394-6.26,2.478-6.522,1.888-.94-2.116,3.514-4.38,6.965-5.269C-49.643-1084.078-48.006-1084.137-47.874-1083.47Z" fill="#cceae6"/>
            <path id="Trazado_2712" data-name="Trazado 2712" d="M-52.143-1079.455c1.814-.748,3.477-.947,3.9.041.328.77-2.058,2.931-4.513,4.347-2,1.15-4.041,1.807-4.7.815C-58.371-1075.616-55.064-1078.249-52.143-1079.455Z" fill="#cceae6"/>
            <path id="Trazado_2713" data-name="Trazado 2713" d="M-50.823-1091.582a20.968,20.968,0,0,1-.236,3.518c-2.939.413-6.737,2.209-6.032,3.857.254.59,3.134.42,5.608-.284-.037.3-.078.6-.118.914-3.451.889-7.9,3.153-6.965,5.269.262.59,3.632-.494,6.522-1.888-.033.244-.066.494-.1.741-2.921,1.206-6.228,3.839-5.317,5.2.664.992,2.706.335,4.7-.815-.808,5.652-1.6,10.611-1.755,10.77-.369.369-12.168.737-12.537.369a18.568,18.568,0,0,1-.342-2.9v0c-.122-1.438-.259-3.3-.391-5.339,2.953-2.706,2.577-5.033,2.577-5.033,1.106-.369,4.937-2.227,4.793-2.95-.273-1.36-4.752-1.316-7.824.428v0a94.122,94.122,0,0,1-.287-9.641c.324-.325,13.671-1.781,16.968-2.131Z" fill="#fff"/>
            <path id="Trazado_2714" data-name="Trazado 2714" d="M-51.561-1091.582l.008.082c-3.3.35-16.644,1.806-16.968,2.131-1.107.368-2.213,1.106-5.162,2.581s-2.95,0-2.213-1.106,5.9-5.162,8.112-5.531,4.056.369,5.531.369,4.055-.738,6.268-.738S-51.561-1091.582-51.561-1091.582Z" fill="#805200"/>
            <path id="Trazado_2715" data-name="Trazado 2715" d="M-60.41-1080.152c.144.723-3.687,2.581-4.793,2.95,0,0,.376,2.327-2.577,5.033.132,2.039.269,3.9.391,5.339v0c-.248.309-11.906,15.1-19.568,18.383-7.743,3.319-23.693.66-30.466-5.014,2.444-3.871,6.482-10.11,8.126-11.743,16.293,21.094,34.1-2.183,38.563-12a5.758,5.758,0,0,1,2.5-2.522C-65.162-1081.468-60.683-1081.512-60.41-1080.152Z" fill="#cceae6"/>
            <path id="Trazado_2716" data-name="Trazado 2716" d="M-88.421-930.526a6.965,6.965,0,0,0,1.221-2.735s8.849.368,12.536-1.107,5.162-3.687,7.005-1.843,1.844,5.9.738,7.005-17.33,12.537-21.385,13.643-6.268-13.274-6.268-13.274a13.228,13.228,0,0,1,2.127.092A4.831,4.831,0,0,0-88.421-930.526Z" fill="#411342"/>
            <path id="Trazado_2717" data-name="Trazado 2717" d="M-79.214-1086.42s-1.106,3.688-2.212,4.794c-.981.98-2.253-.258-.369-1.844A9.025,9.025,0,0,0-79.214-1086.42Z" fill="#805200"/>
            <path id="Trazado_2718" data-name="Trazado 2718" d="M-84.376-1090.107a9.929,9.929,0,0,0-2.581,2.213c-.737,1.106-1.475,2.949-2.581,2.212S-88.8-1089.369-84.376-1090.107Z" fill="#805200"/>
            <path id="Trazado_2719" data-name="Trazado 2719" d="M-90.662-935.706l2.241,5.18a4.831,4.831,0,0,1-4.026,1.781l-2.743-5A16.661,16.661,0,0,0-90.662-935.706Z" fill="#cceae6"/>
            <path id="Trazado_2720" data-name="Trazado 2720" d="M-89.169-937.092a5.9,5.9,0,0,1-1.493,1.386,16.661,16.661,0,0,1-4.528,1.962c-.808.228-1.353.339-1.353.339-4.425-12.168-45.72-67.474-45.72-67.474a6.242,6.242,0,0,0-2.95,0c-21.754,58.625-55.675,73-55.675,73l-1.018-1.81-1.828-3.252-.472-.837c25.441-17.329,30.569-57.172,30.569-57.172,15.681-6.994,37.793-17.241,38.748-19.151.571-1.143-.078-4.284-1.235-7.831,8.731.483,12.521-1.154,13.874-2.01h0C-119.9-1019-89.169-937.092-89.169-937.092Z" fill="#004b41"/>
            <path id="Trazado_2721" data-name="Trazado 2721" d="M-107.605-1123.291c0,2.95-5.162,8.481-5.162,8.481-7.005-1.106-12.167-4.425-16.591-1.106-2.722,2.039-2.581,8.111-2.581,8.111s-3.794-6.552-6.04-3.646l0,0c-1.615-5.494-6.861-8.886.513-12.942S-107.605-1126.24-107.605-1123.291Z" fill="#200921"/>
            <path id="Trazado_2722" data-name="Trazado 2722" d="M-112.767-1114.81s3.894,13.059-2.949,18.435c-5.162,4.056-7.065,3.982-8.481,5.162-2.212,1.844-1.843,4.793-1.474,5.9,0,0-1.457,2.547-2.95,3.318-3.141,1.615-7.625,1.331-7.374-5.162,0,0,3.1-3.7,2.26-10.814a25.441,25.441,0,0,0-1.154-5.041c-.17-.5-1.438-1.257-2.518-2.363-1.306-1.338-2.334-3.2-.8-5.748a2.5,2.5,0,0,1,.228-.328c2.246-2.906,6.04,3.646,6.04,3.646s-.141-6.072,2.581-8.111C-124.934-1119.235-119.772-1115.916-112.767-1114.81Z" fill="#cceae6"/>
            <path id="Trazado_2723" data-name="Trazado 2723" d="M-152.222-1060.245c-2.891,2.529-6.088,5.734-7.371,8.484a26.289,26.289,0,0,1-1.626-2.537,29.342,29.342,0,0,1-4.081-13.454,100.447,100.447,0,0,1,18.612-15.349l10.693-4.056c-.251,6.493,4.233,6.777,7.374,5.162,1.493-.771,2.95-3.318,2.95-3.318l7.374,2.949c2.879,7.577,5.91,13.167,9,17.164-1.644,1.633-5.682,7.872-8.126,11.743-1.177,1.858-1.98,3.171-1.98,3.171l-1.781-2.533a59.353,59.353,0,0,0-.432,32.4,3.139,3.139,0,0,1-.63.483h0c-1.353.856-5.143,2.493-13.874,2.01-1.829-5.6-4.93-12.2-6.508-13.554,0,0-7.448,2.946-17.326,7.43a16.2,16.2,0,0,1-4.476-1.656,1.678,1.678,0,0,1-.321-.243c3.319-5.162,13.643-17.33,14.011-20.648S-152.222-1060.245-152.222-1060.245Z" fill="#33ab9a"/>
            <path id="Trazado_2724" data-name="Trazado 2724" d="M-133.735-1097.971s-3.366.121-4.1-.616c-.472-.472.262-3.344.432-6.788,1.08,1.106,2.348,1.862,2.518,2.363A25.441,25.441,0,0,1-133.735-1097.971Z" fill="#200921"/>
            <path id="Trazado_2725" data-name="Trazado 2725" d="M-136.124-1017.928c1.157,3.547,1.806,6.688,1.235,7.831-.955,1.91-23.067,12.157-38.748,19.151-8.55,3.812-15.191,6.659-15.452,6.659-.738,0-10.147-12.2-10.693-14.38-.369-1.475,0-3.318,3.687-5.9a185.1,185.1,0,0,1,21.64-12.551c-1.851,5.756-2.467,14.394-2.467,14.394,1.106-1.843,7.437-15.268,8.48-14.748.738.369-.737,9.955,1.106,9.218,3.573-1.431,2.039-9.015,2.95-7.743,1.844,2.581,5.531,3.318,5.531,3.318s-2.574-7.481-5.841-9.188c1.626-.763,3.212-1.493,4.738-2.186,9.878-4.484,17.326-7.43,17.326-7.43C-141.054-1030.129-137.953-1023.525-136.124-1017.928Z" fill="#200921"/>
            <path id="Trazado_2726" data-name="Trazado 2726" d="M-164.7-1021.866c3.267,1.707,5.841,9.188,5.841,9.188s-3.687-.737-5.531-3.318c-.911-1.272.623,6.312-2.95,7.743-1.843.737-.368-8.849-1.106-9.218-1.043-.52-7.374,12.905-8.48,14.748,0,0,.616-8.638,2.467-14.394a10.5,10.5,0,0,1,2.326-4.41s-17.167-20.286,6.829-46.225a29.342,29.342,0,0,0,4.081,13.454c-11.548,15.9-7.481,27.606-4.708,31.271a3.931,3.931,0,0,0,1.172,1.132C-164.736-1021.884-164.714-1021.877-164.7-1021.866Z" fill="#cceae6"/>
            <path id="Trazado_2727" data-name="Trazado 2727" d="M-164.434-1025.708a16.2,16.2,0,0,0,4.476,1.656c-1.526.693-3.112,1.423-4.738,2.186-.018-.011-.04-.018-.059-.029a3.931,3.931,0,0,1-1.172-1.132C-165.444-1023.975-164.434-1025.708-164.434-1025.708Z" fill="#002620"/>
            <path id="Trazado_2728" data-name="Trazado 2728" d="M-204.206-912.389c1.474,3.687,3.687,5.162,1.843,7.006s-5.9,1.843-7,.737-12.536-17.329-13.643-21.385,13.274-6.268,13.274-6.268c.166.166-.2,1.4-.059,2.832a4.658,4.658,0,0,0,1.265,2.887,6.375,6.375,0,0,0,3.218,1.655S-205.681-916.076-204.206-912.389Z" fill="#411342"/>
            <path id="Trazado_2729" data-name="Trazado 2729" d="M-258.775-949.628c.988,4.45-9.587,7.005-9.587,7.005l-.228-.907-.974-3.9-.273-1.091S-259.513-952.947-258.775-949.628Z" fill="#002620"/>
            <path id="Trazado_2730" data-name="Trazado 2730" d="M-269.564-947.431l.973,3.9-4.565,1.276-.737-4.056Z" fill="#fff"/>
            <path id="Trazado_2731" data-name="Trazado 2731" d="M-195.756-992.338s-12.506,3.995-16.562,9.157-12.536,18.435-21.754,23.229-24.7,10.324-24.7,10.324" fill="none" stroke="#000" stroke-linecap="round" stroke-linejoin="round" stroke-width="0.369"/>
            <path id="Trazado_2732" data-name="Trazado 2732" d="M-123.09-1109.648c.7-.065,1.684,1.323,1.474,2.581-.175,1.056-1.194,2.031-1.843,1.843s-.784-1.5-.738-2.212C-124.14-1108.3-123.732-1109.588-123.09-1109.648Z" fill="#002620"/>
            <path id="Trazado_2733" data-name="Trazado 2733" d="M-116.822-1110.017c.712.14,1.089,1.132,1.106,1.844.024,1-.644,2.209-1.475,2.212s-1.583-1.172-1.475-2.212C-118.561-1109.179-117.63-1110.176-116.822-1110.017Z" fill="#002620"/>
            <path id="Trazado_2734" data-name="Trazado 2734" d="M-127.515-1100.8a9,9,0,0,0,3.318,1.843" fill="none" stroke="#002620" stroke-linecap="round" stroke-linejoin="round" stroke-width="0.369"/>
            <path id="Trazado_2735" data-name="Trazado 2735" d="M-120.141-1100.8l2.95-1.844c-1.475-.737-2.581-3.871-2.581-3.871s.553,3.134,1.29,3.871C-118.482-1102.643-119.219-1101.905-120.141-1100.8Z" fill="#66c0b3"/>
            <path id="Trazado_2736" data-name="Trazado 2736" d="M-126.409-1111.123a7.034,7.034,0,0,1,3.687-1.475" fill="none" stroke="#002620" stroke-linecap="round" stroke-linejoin="round" stroke-width="0.369"/>
            <path id="Trazado_2737" data-name="Trazado 2737" d="M-117.56-1112.967s2.213-.368,2.95.369" fill="none" stroke="#002620" stroke-linecap="round" stroke-linejoin="round" stroke-width="0.369"/>
            <path id="Trazado_2738" data-name="Trazado 2738" d="M-133.414-1107.62c-1.106-2.213-3.319-4.056-4.056-.738C-137.47-1108.358-136.364-1110.939-133.414-1107.62Z" fill="#99d5cd"/>
            <path id="Trazado_2739" data-name="Trazado 2739" d="M-136.364-1109.833a5.681,5.681,0,0,1,.737,2.95,5.012,5.012,0,0,0,0-2.581C-135.995-1110.57-136.364-1109.833-136.364-1109.833Z" fill="#99d5cd"/>
            <g id="Grupo_5632" data-name="Grupo 5632">
              <g id="Grupo_5631" data-name="Grupo 5631" clip-path="url(#clip-path-2)">
                <path id="Trazado_2740" data-name="Trazado 2740" d="M-135.092-1103.321l.94.863s1.844,5.53,1.475,9.217-3.318,10.324-3.318,10.324l-.738-4.793Z" fill="#99d5cd"/>
              </g>
            </g>
            <g id="Grupo_5634" data-name="Grupo 5634">
              <g id="Grupo_5633" data-name="Grupo 5633" clip-path="url(#clip-path-3)">
                <path id="Trazado_2742" data-name="Trazado 2742" d="M-135.588-1083.87l-9.994,3.9a138.678,138.678,0,0,0-19.173,16.96c-8.062,8.981-.737-8.111-.737-8.111l17.7-14.38,12.167-4.056Z" fill="#009681"/>
                <path id="Trazado_2743" data-name="Trazado 2743" d="M-146.688-1064.85" fill="#009681"/>
                <path id="Trazado_2744" data-name="Trazado 2744" d="M-146.688-1064.85a42.268,42.268,0,0,0-5.162,4.056c-1.843,1.843-13.273,35.027-13.273,35.027l7.005,3.318s10.693-18.435,11.43-22.859S-147.056-1054.158-146.688-1064.85Z" fill="#009681"/>
                <path id="Trazado_2745" data-name="Trazado 2745" d="M-118.666-1059.319a62.847,62.847,0,0,0-2.581,6.636c-.737,2.581,2.212,3.319,2.212,3.319l4.425-5.9Z" fill="#009681"/>
              </g>
            </g>
            <g id="Grupo_5636" data-name="Grupo 5636">
              <g id="Grupo_5635" data-name="Grupo 5635" clip-path="url(#clip-path-4)">
                <path id="Trazado_2747" data-name="Trazado 2747" d="M-164.386-1063.375s-19.541,17.7-6.637,42.033c0,0-2.581.368-5.9,18.435s2.95-19.91,2.95-19.91-18.436-19.911,6.636-46.458S-164.386-1063.375-164.386-1063.375Z" fill="#99d5cd"/>
                <path id="Trazado_2748" data-name="Trazado 2748" d="M-169.179-1016.918s.953-1.106,1.475-1.106c1.106,0-.738,8.849,1.106,9.218,1.547.309-.369,2.212-.369,2.212a2.989,2.989,0,0,1-1.843-2.581C-168.81-1011.019-170.437-1014.886-169.179-1016.918Z" fill="#99d5cd"/>
                <path id="Trazado_2749" data-name="Trazado 2749" d="M-164.637-1016.068c-.025-.495.251-.85.989-.481s2.949,2.95,5.162,4.056S-164.519-1013.744-164.637-1016.068Z" fill="#99d5cd"/>
              </g>
            </g>
            <g id="Grupo_5638" data-name="Grupo 5638">
              <g id="Grupo_5637" data-name="Grupo 5637" clip-path="url(#clip-path-5)">
                <path id="Trazado_2751" data-name="Trazado 2751" d="M-115.624-1056.277c3.964,3.594,19.449,11.706,27.561,8.756s-5.856,5.48-16.961,1.475C-127.515-1054.158-115.624-1056.277-115.624-1056.277Z" fill="#99d5cd"/>
                <path id="Trazado_2752" data-name="Trazado 2752" d="M-62.449-1081.094c-.91.389-.91,2.6-.173,2.6,1.3,0,1.514,10.852-4.793,11.8-7.374,1.106-14.749,11.8-27.653,9.956s26.547-24.7,28.39-25.073A8.429,8.429,0,0,1-62.449-1081.094Z" fill="#99d5cd"/>
              </g>
            </g>
            <g id="Grupo_5640" data-name="Grupo 5640">
              <g id="Grupo_5639" data-name="Grupo 5639" clip-path="url(#clip-path-6)">
                <path id="Trazado_2754" data-name="Trazado 2754" d="M-56.79-1076.362c.436,2.663,4.241.692,6.21-.166s-2.824,4.672-5.037,4.3-3.687-1.844-3.318-2.95S-56.79-1076.362-56.79-1076.362Z" fill="#99d5cd"/>
              </g>
            </g>
            <g id="Grupo_5642" data-name="Grupo 5642">
              <g id="Grupo_5641" data-name="Grupo 5641" clip-path="url(#clip-path-7)">
                <path id="Trazado_2756" data-name="Trazado 2756" d="M-57.785-1080.576c.325,2.084,5.191.281,7.367-.477s-6.673,3.667-7.411,3.667-2.212-.369-1.475-2.212S-57.785-1080.576-57.785-1080.576Z" fill="#99d5cd"/>
              </g>
            </g>
            <g id="Grupo_5644" data-name="Grupo 5644">
              <g id="Grupo_5643" data-name="Grupo 5643" clip-path="url(#clip-path-8)">
                <path id="Trazado_2758" data-name="Trazado 2758" d="M-56.267-1086.043c.282,1.283,1.7,1.54,5.785,1.227s-5.135,1.9-6.609,1.162S-56.267-1086.043-56.267-1086.043Z" fill="#99d5cd"/>
              </g>
            </g>
            <g id="Grupo_5646" data-name="Grupo 5646">
              <g id="Grupo_5645" data-name="Grupo 5645" clip-path="url(#clip-path-9)">
                <path id="Trazado_2760" data-name="Trazado 2760" d="M-62.622-1090.291s.074,22.123,1.106,24.7c.737,1.844,5.162.738,7.006,1.475,1.15.46-13.8,2.307-14.011,1.475-.369-1.475-2.95-26.547-1.844-27.284S-62.622-1090.291-62.622-1090.291Z" fill="#e6e6e6"/>
                <path id="Trazado_2761" data-name="Trazado 2761" d="M-50.455-1092.135s1.475,28.391.369,29.128-5.436,2.2-5.162,0c.369-2.949,3.687-22.122,3.319-28.39C-52.279-1097.332-50.455-1092.135-50.455-1092.135Z" fill="#f2f2f2"/>
              </g>
            </g>
            <g id="Grupo_5648" data-name="Grupo 5648">
              <g id="Grupo_5647" data-name="Grupo 5647" clip-path="url(#clip-path-10)">
                <path id="Trazado_2763" data-name="Trazado 2763" d="M-157.38-1023.186c-.738,1.475-4.056,63.049-46.089,92.177-17.154,11.888-3.113-3.15-.737-6.268,41.295-54.2,30.971-87.752,34.658-88.49S-157.38-1023.186-157.38-1023.186Z" fill="#002620"/>
                <path id="Trazado_2764" data-name="Trazado 2764" d="M-145.213-1000.7c-.737,1.844,46.457,68.58,48.67,68.58s3.694-.648,3.318-1.475c-7.374-16.223-29.865-55.306-47.932-74.848C-142.962-1010.39-145.213-1000.7-145.213-1000.7Z" fill="#002620"/>
              </g>
            </g>
            <g id="Grupo_5650" data-name="Grupo 5650">
              <g id="Grupo_5649" data-name="Grupo 5649" clip-path="url(#clip-path-11)">
                <path id="Trazado_2766" data-name="Trazado 2766" d="M-209.69-928.784c-3,.725-7.053,1.462-7.421,2.937s2.069,10.3,8.777,21.742-22.788-20.636-20.207-22.848,17.329-8.849,19.173-8.48S-209.69-928.784-209.69-928.784Z" fill="#200921"/>
              </g>
            </g>
            <g id="Grupo_5652" data-name="Grupo 5652">
              <g id="Grupo_5651" data-name="Grupo 5651" clip-path="url(#clip-path-12)">
                <path id="Trazado_2768" data-name="Trazado 2768" d="M-93.543-934.283l2.9,5.855-2.212.369-2.95-6.268Z" fill="#99d5cd"/>
              </g>
            </g>
            <g id="Grupo_5654" data-name="Grupo 5654">
              <g id="Grupo_5653" data-name="Grupo 5653" clip-path="url(#clip-path-13)">
                <path id="Trazado_2770" data-name="Trazado 2770" d="M-90.89-928.924c.615,1.971,2.09,5.658,4.3,6.764s16.322-4.214,19.96-7.453-12.586,14.828-19.591,15.934-14.38-11.062-11.8-14.38S-90.89-928.924-90.89-928.924Z" fill="#200921"/>
              </g>
            </g>
          </g>
          <path id="Trazado_2772" data-name="Trazado 2772" d="M-273.155-909.255c30.538,7.132,55.018,7.1,67.1,6.268,72.54-4.962,117.052-8.007,116.881-12.167-.118-2.861-27.852-4.282-83.328-7.006-74.353-3.65-136.736-6.714-137.529-.368C-310.592-918-279.506-910.738-273.155-909.255Z" fill="#002620" opacity="0.15"/>
        </g>
        <rect id="Rectángulo_2119" data-name="Rectángulo 2119" width="338" height="338" fill="none"/>
      </g>
    </g>
  </g>
</svg>
